<svg id="Component_17_15" data-name="Component 17 – 15" xmlns="http://www.w3.org/2000/svg" width="50" height="50.006" viewBox="0 0 50 50.006">
  <rect id="Rectangle_1426" data-name="Rectangle 1426" width="50" height="50" fill="#fff" opacity="0"/>
  <path id="Icon_awesome-blog" data-name="Icon awesome-blog" d="M16.819,22.152a2.347,2.347,0,0,0-2.754,2.325V29.4A2.347,2.347,0,0,0,15.7,31.548a4.688,4.688,0,1,1-6.319,4.4V11.721A2.338,2.338,0,0,0,7.032,9.377H2.344A2.338,2.338,0,0,0,0,11.721V35.943A14.068,14.068,0,1,0,16.819,22.152ZM20.413,0a1.572,1.572,0,0,0-1.66,1.563V4.65A1.547,1.547,0,0,0,20.218,6.2,25.085,25.085,0,0,1,43.747,29.79,1.56,1.56,0,0,0,45.3,31.255h3.135A1.572,1.572,0,0,0,50,29.595,31.33,31.33,0,0,0,20.413,0Zm.029,9.376a1.576,1.576,0,0,0-1.69,1.572v3.135A1.557,1.557,0,0,0,20.2,15.638,15.6,15.6,0,0,1,34.351,29.82,1.57,1.57,0,0,0,35.9,31.255h3.145a1.582,1.582,0,0,0,1.572-1.69A21.976,21.976,0,0,0,20.442,9.377Z" transform="translate(0 0.002)" fill="#fff"/>
</svg>
