<svg id="Component_17_7" data-name="Component 17 – 7" xmlns="http://www.w3.org/2000/svg" width="16" height="16.002" viewBox="0 0 16 16.002">
  <rect id="Rectangle_1426" data-name="Rectangle 1426" width="16" height="16" fill="#911d74" opacity="0"/>
  <path id="Icon_awesome-blog" data-name="Icon awesome-blog" d="M5.382,7.088a.751.751,0,0,0-.881.744V9.407a.751.751,0,0,0,.522.688A1.5,1.5,0,1,1,3,11.5V3.75A.748.748,0,0,0,2.25,3H.75A.748.748,0,0,0,0,3.75V11.5A4.5,4.5,0,1,0,5.382,7.088ZM6.532,0A.5.5,0,0,0,6,.5v.988a.5.5,0,0,0,.469.5A8.027,8.027,0,0,1,14,9.532a.5.5,0,0,0,.5.469h1a.5.5,0,0,0,.5-.531A10.025,10.025,0,0,0,6.532,0Zm.009,3A.5.5,0,0,0,6,3.5v1a.5.5,0,0,0,.463.5,4.992,4.992,0,0,1,4.529,4.538.5.5,0,0,0,.5.459H12.5A.506.506,0,0,0,13,9.46,7.032,7.032,0,0,0,6.542,3Z" transform="translate(0 0.002)" fill="#911d74"/>
</svg>
