<svg xmlns="http://www.w3.org/2000/svg" width="14" height="16" viewBox="0 0 14 16">
  <path id="Icon_awesome-building" data-name="Icon awesome-building" d="M13.625,15H13V.75A.75.75,0,0,0,12.25,0H1.75A.75.75,0,0,0,1,.75V15H.375A.375.375,0,0,0,0,15.375V16H14v-.625A.375.375,0,0,0,13.625,15ZM4,2.375A.375.375,0,0,1,4.375,2h1.25A.375.375,0,0,1,6,2.375v1.25A.375.375,0,0,1,5.625,4H4.375A.375.375,0,0,1,4,3.625Zm0,3A.375.375,0,0,1,4.375,5h1.25A.375.375,0,0,1,6,5.375v1.25A.375.375,0,0,1,5.625,7H4.375A.375.375,0,0,1,4,6.625ZM5.625,10H4.375A.375.375,0,0,1,4,9.625V8.375A.375.375,0,0,1,4.375,8h1.25A.375.375,0,0,1,6,8.375v1.25A.375.375,0,0,1,5.625,10ZM8,15H6V12.375A.375.375,0,0,1,6.375,12h1.25A.375.375,0,0,1,8,12.375Zm2-5.375A.375.375,0,0,1,9.625,10H8.375A.375.375,0,0,1,8,9.625V8.375A.375.375,0,0,1,8.375,8h1.25A.375.375,0,0,1,10,8.375Zm0-3A.375.375,0,0,1,9.625,7H8.375A.375.375,0,0,1,8,6.625V5.375A.375.375,0,0,1,8.375,5h1.25A.375.375,0,0,1,10,5.375Zm0-3A.375.375,0,0,1,9.625,4H8.375A.375.375,0,0,1,8,3.625V2.375A.375.375,0,0,1,8.375,2h1.25A.375.375,0,0,1,10,2.375Z" fill="#911d74"/>
</svg>
