<svg id="Component_8_7" data-name="Component 8 – 7" xmlns="http://www.w3.org/2000/svg" width="16" height="16" viewBox="0 0 16 16">
  <path id="Icon_awesome-store" data-name="Icon awesome-store" d="M15.641,3.081,13.955.39a.832.832,0,0,0-.7-.39H2.756a.832.832,0,0,0-.7.39L.366,3.081A2.318,2.318,0,0,0,1.894,6.624a2.7,2.7,0,0,0,.356.023,2.565,2.565,0,0,0,1.917-.86A2.567,2.567,0,0,0,8,5.788a2.567,2.567,0,0,0,3.834,0,2.574,2.574,0,0,0,1.917.86,2.671,2.671,0,0,0,.356-.023A2.315,2.315,0,0,0,15.641,3.081Zm-1.883,4.4a3.3,3.3,0,0,1-.766-.1V9.975H3.016V7.383a3.441,3.441,0,0,1-.766.1,3.5,3.5,0,0,1-.468-.031,3.267,3.267,0,0,1-.426-.094v5.112a.83.83,0,0,0,.831.831H13.825a.83.83,0,0,0,.831-.831V7.357a2.652,2.652,0,0,1-.426.094A3.613,3.613,0,0,1,13.757,7.481Z" transform="translate(-0.004 1)" fill="#911d74"/>
  <rect id="Rectangle_1418" data-name="Rectangle 1418" width="16" height="16" fill="#911d74" opacity="0"/>
</svg>
