<svg xmlns="http://www.w3.org/2000/svg" width="12" height="16" viewBox="0 0 12 16">
  <path id="Icon_awesome-file-alt" data-name="Icon awesome-file-alt" d="M7,4.25V0H.75A.748.748,0,0,0,0,.75v14.5A.748.748,0,0,0,.75,16h10.5a.748.748,0,0,0,.75-.75V5H7.75A.752.752,0,0,1,7,4.25Zm2,7.375A.376.376,0,0,1,8.625,12H3.375A.376.376,0,0,1,3,11.625v-.25A.376.376,0,0,1,3.375,11h5.25A.376.376,0,0,1,9,11.375Zm0-2A.376.376,0,0,1,8.625,10H3.375A.376.376,0,0,1,3,9.625v-.25A.376.376,0,0,1,3.375,9h5.25A.376.376,0,0,1,9,9.375Zm0-2.25v.25A.376.376,0,0,1,8.625,8H3.375A.376.376,0,0,1,3,7.625v-.25A.376.376,0,0,1,3.375,7h5.25A.376.376,0,0,1,9,7.375Zm3-3.566V4H8V0h.191a.749.749,0,0,1,.531.219l3.059,3.063A.748.748,0,0,1,12,3.809Z" fill="#911d74"/>
</svg>
