<svg xmlns="http://www.w3.org/2000/svg" width="50" height="50" viewBox="0 0 50 50">
  <path id="Icon_awesome-question-circle" data-name="Icon awesome-question-circle" d="M50.563,25.563a25,25,0,1,1-25-25A25,25,0,0,1,50.563,25.563ZM26.233,8.829c-5.494,0-9,2.314-11.749,6.427a1.211,1.211,0,0,0,.274,1.639l3.5,2.652a1.209,1.209,0,0,0,1.68-.214c1.8-2.284,3.036-3.609,5.777-3.609,2.059,0,4.607,1.325,4.607,3.322,0,1.51-1.246,2.285-3.28,3.425-2.371,1.329-5.509,2.984-5.509,7.123V30a1.21,1.21,0,0,0,1.21,1.21h5.645A1.21,1.21,0,0,0,29.595,30v-.134c0-2.869,8.386-2.989,8.386-10.753C37.98,13.264,31.915,8.829,26.233,8.829Zm-.671,25A4.637,4.637,0,1,0,30.2,38.466,4.642,4.642,0,0,0,25.563,33.829Z" transform="translate(-0.563 -0.563)" fill="#fff"/>
</svg>
