<svg xmlns="http://www.w3.org/2000/svg" width="24" height="24" viewBox="0 0 24 24">
  <g id="Group_1030" data-name="Group 1030" transform="translate(-1219 -195)">
    <rect id="Rectangle_14" data-name="Rectangle 14" width="24" height="24" transform="translate(1219 195)" fill="#911d74" opacity="0"/>
    <path id="Vector" d="M4.376,2.188A2.188,2.188,0,1,1,2.188,0,2.188,2.188,0,0,1,4.376,2.188Z" transform="translate(1222 197)" fill="#911d74"/>
    <path id="Vector-2" data-name="Vector" d="M6.142.3V12.439H9.911v-6c0-1.584.3-3.118,2.262-3.118,1.937,0,1.961,1.811,1.961,3.218v5.9h3.771V5.783c0-3.27-.7-5.783-4.526-5.783A3.963,3.963,0,0,0,9.811,1.96H9.76V.3ZM0,.3H3.775V12.439H0Z" transform="translate(1222.301 202.734)" fill="#911d74"/>
  </g>
</svg>
