<svg xmlns="http://www.w3.org/2000/svg" width="50" height="50" viewBox="0 0 50 50">
  <path id="Icon_awesome-medal" data-name="Icon awesome-medal" d="M21.851,12.769,15.1,1.518A3.125,3.125,0,0,0,12.42,0H1.565A1.563,1.563,0,0,0,.285,2.459L11.151,17.982A20.211,20.211,0,0,1,21.851,12.769ZM48.435,0H37.58A3.125,3.125,0,0,0,34.9,1.518L28.149,12.769a20.217,20.217,0,0,1,10.7,5.213L49.715,2.459A1.563,1.563,0,0,0,48.435,0ZM25,15.625A17.187,17.187,0,1,0,42.187,32.812,17.188,17.188,0,0,0,25,15.625Zm9.035,15.357-3.7,3.609.876,5.1a1.121,1.121,0,0,1-1.626,1.181L25,38.465l-4.58,2.407a1.121,1.121,0,0,1-1.626-1.181l.876-5.1-3.7-3.609a1.122,1.122,0,0,1,.62-1.913l5.12-.746,2.288-4.641a1.123,1.123,0,0,1,2.013,0l2.288,4.641,5.12.746A1.122,1.122,0,0,1,34.035,30.982Z" transform="translate(0)" fill="#fff"/>
</svg>
