<svg id="Component_9_7" data-name="Component 9 – 7" xmlns="http://www.w3.org/2000/svg" width="16" height="16" viewBox="0 0 16 16">
  <path id="Icon_awesome-medal" data-name="Icon awesome-medal" d="M6.992,4.086,4.832.486A1,1,0,0,0,3.974,0H.5a.5.5,0,0,0-.41.787L3.568,5.754A6.467,6.467,0,0,1,6.992,4.086ZM15.5,0H12.026a1,1,0,0,0-.858.486l-2.16,3.6a6.469,6.469,0,0,1,3.424,1.668L15.909.787A.5.5,0,0,0,15.5,0ZM8,5a5.5,5.5,0,1,0,5.5,5.5A5.5,5.5,0,0,0,8,5Zm2.891,4.914L9.706,11.069l.28,1.632a.359.359,0,0,1-.52.378L8,12.309l-1.466.77a.359.359,0,0,1-.52-.378l.28-1.632L5.109,9.914a.359.359,0,0,1,.2-.612l1.638-.239.732-1.485a.36.36,0,0,1,.644,0l.732,1.485,1.638.239A.359.359,0,0,1,10.891,9.914Z" fill="#911d74"/>
  <rect id="Rectangle_1419" data-name="Rectangle 1419" width="16" height="16" fill="#911d74" opacity="0"/>
</svg>
