<svg id="Component_10_7" data-name="Component 10 – 7" xmlns="http://www.w3.org/2000/svg" width="16" height="16" viewBox="0 0 16 16">
  <path id="Icon_awesome-ticket-alt" data-name="Icon awesome-ticket-alt" d="M3.556,7.167h8.889V12.5H3.556ZM14.667,9.833A1.333,1.333,0,0,0,16,11.167v2.667a1.333,1.333,0,0,1-1.333,1.333H1.333A1.333,1.333,0,0,1,0,13.833V11.167A1.333,1.333,0,1,0,0,8.5V5.833A1.333,1.333,0,0,1,1.333,4.5H14.667A1.333,1.333,0,0,1,16,5.833V8.5A1.333,1.333,0,0,0,14.667,9.833ZM13.333,6.944a.667.667,0,0,0-.667-.667H3.333a.667.667,0,0,0-.667.667v5.778a.667.667,0,0,0,.667.667h9.333a.667.667,0,0,0,.667-.667Z" transform="translate(0 -1.5)" fill="#911d74"/>
  <rect id="Rectangle_1420" data-name="Rectangle 1420" width="16" height="16" fill="#911d74" opacity="0"/>
</svg>
