<svg xmlns="http://www.w3.org/2000/svg" width="18" height="14" viewBox="0 0 18 14">
  <path id="Vector" d="M16.151,3.489c.012.153.012.306.012.459A10.2,10.2,0,0,1,5.666,14,10.763,10.763,0,0,1,0,12.413a8.048,8.048,0,0,0,.891.044,7.6,7.6,0,0,0,4.581-1.509A3.681,3.681,0,0,1,2.021,8.5a4.9,4.9,0,0,0,.7.054,4.09,4.09,0,0,0,.972-.12A3.574,3.574,0,0,1,.732,4.965V4.921A3.848,3.848,0,0,0,2.4,5.37,3.491,3.491,0,0,1,.754,2.428a3.392,3.392,0,0,1,.5-1.782,10.654,10.654,0,0,0,7.608,3.7,3.851,3.851,0,0,1-.092-.81A3.612,3.612,0,0,1,12.461,0a3.757,3.757,0,0,1,2.7,1.116A7.488,7.488,0,0,0,17.5.262a3.559,3.559,0,0,1-1.622,1.947A7.654,7.654,0,0,0,18,1.662,7.743,7.743,0,0,1,16.151,3.489Z" fill="#911d74"/>
</svg>
