<svg xmlns="http://www.w3.org/2000/svg" width="50" height="50" viewBox="0 0 50 50">
  <g id="Component_10_23" data-name="Component 10 – 23" transform="translate(0 3)">
    <path id="Icon_awesome-ticket-alt" data-name="Icon awesome-ticket-alt" d="M11.111,12.833H38.889V29.5H11.111Zm34.722,8.333A4.167,4.167,0,0,0,50,25.333v8.333a4.167,4.167,0,0,1-4.167,4.167H4.167A4.167,4.167,0,0,1,0,33.667V25.333a4.167,4.167,0,0,0,4.167-4.167A4.167,4.167,0,0,0,0,17V8.667A4.167,4.167,0,0,1,4.167,4.5H45.833A4.167,4.167,0,0,1,50,8.667V17A4.167,4.167,0,0,0,45.833,21.167Zm-4.167-9.028a2.083,2.083,0,0,0-2.083-2.083H10.417a2.083,2.083,0,0,0-2.083,2.083V30.194a2.083,2.083,0,0,0,2.083,2.083H39.583a2.083,2.083,0,0,0,2.083-2.083Z" transform="translate(0 -4.5)" fill="#911d74"/>
    <rect id="Rectangle_1420" data-name="Rectangle 1420" width="50" height="50" transform="translate(0 -3)" fill="#fff" opacity="0"/>
  </g>
</svg>
