<svg xmlns="http://www.w3.org/2000/svg" width="90" height="90" viewBox="0 0 90 90">
  <g id="Group_3043" data-name="Group 3043" transform="translate(-641 -215)">
    <circle id="NoPath_-_Copy" data-name="NoPath - Copy" cx="45" cy="45" r="45" transform="translate(641 215)" fill="#911d74"/>
    <path id="Icon_awesome-user" data-name="Icon awesome-user" d="M21.836,24.955A12.477,12.477,0,1,0,9.358,12.477,12.477,12.477,0,0,0,21.836,24.955Zm8.734,3.119H28.942a16.969,16.969,0,0,1-14.213,0H13.1A13.1,13.1,0,0,0,0,41.176v4.055A4.68,4.68,0,0,0,4.679,49.91H38.992a4.68,4.68,0,0,0,4.679-4.679V41.176A13.1,13.1,0,0,0,30.57,28.074Z" transform="translate(664.165 235.045)" fill="#fff"/>
  </g>
</svg>
