<svg xmlns="http://www.w3.org/2000/svg" width="195.798" height="223.596" viewBox="0 0 195.798 223.596">
  <g id="Group_3042" data-name="Group 3042" transform="translate(-1076.6 -1031.448)">
    <path id="shield" d="M196.648,41.688c-.2-3.659-2.563-6.687-5.72-7.332C153.52,26.693,137.781,20.7,104,3.319c-3.377-1.435-5.467-1.414-8.695,0C61.519,20.719,45.78,26.686,8.373,34.357c-3.157.645-5.519,3.673-5.72,7.332-1.676,30.373,1.886,58.66,10.593,84.084A178.3,178.3,0,0,0,44.3,181.653C63.727,205.231,85.26,219,96.366,224.207a7.692,7.692,0,0,0,6.567,0c11.737-5.43,32.479-18.8,52.052-42.561a178.291,178.291,0,0,0,31.057-55.867c8.707-25.424,12.269-53.711,10.593-84.083Z" transform="translate(1074.855 1029.568)" fill="none" stroke="#6d2b70" stroke-width="1"/>
    <path id="shield-2" data-name="shield" d="M184.034,39.129a7.164,7.164,0,0,0-5.349-6.856C143.7,25.107,128.987,19.5,97.4,3.25a8.769,8.769,0,0,0-8.131,0C57.673,19.52,42.956,25.1,7.975,32.273a7.164,7.164,0,0,0-5.349,6.856c-1.567,28.4,1.764,54.854,9.906,78.628a166.728,166.728,0,0,0,29.041,52.255c18.164,22.048,38.3,34.921,48.686,39.793a7.193,7.193,0,0,0,6.141,0c10.976-5.077,30.371-17.579,48.674-39.8a166.722,166.722,0,0,0,29.041-52.242c8.142-23.774,11.473-50.226,9.906-78.628Z" transform="translate(1080.533 1037.471)" fill="#6d2b70"/>
    <path id="Subtraction_2" data-name="Subtraction 2" d="M.32,208.244c-.1,0-.212,0-.32-.007V.006C.1,0,.2,0,.283,0a10.374,10.374,0,0,1,4.1,1C35.346,16.924,49.771,22.666,85.675,30.023a7.146,7.146,0,0,1,5.353,6.856l-.014.005c1.569,28.4-1.764,54.854-9.9,78.629a172.379,172.379,0,0,1-12.321,27.719,161.378,161.378,0,0,1-16.719,24.522,167.271,167.271,0,0,1-27.086,26.329,117.288,117.288,0,0,1-21.59,13.472A7.217,7.217,0,0,1,.32,208.244Z" transform="translate(1173.854 1039.668)" fill="#86388a"/>
    <g id="Layer_4" transform="translate(1121.001 1113.219)">
      <g id="Group_4" data-name="Group 4" transform="translate(0 0)">
        <g id="Group_3" data-name="Group 3" transform="translate(0 0)">
          <path id="Path_7" data-name="Path 7" d="M217.087,117.157h13.478V110.25H195.66v6.907h13.825v35.916h7.6Z" transform="translate(-166.829 -105.901)" fill="#fff"/>
          <path id="Path_8" data-name="Path 8" d="M261.05,281.166v5.871h7.6v-5.527a6.647,6.647,0,0,0-4.148-1.381A5.831,5.831,0,0,0,261.05,281.166Z" transform="translate(-218.394 -239.865)" fill="#fff"/>
          <path id="Path_9" data-name="Path 9" d="M261.05,233.891v8.634a6.277,6.277,0,0,0,5.531,2.763c.691,0,1.383-.345,2.074-.345v-13.47c-.691,0-1.383-.345-2.074-.345A6.271,6.271,0,0,0,261.05,233.891Z" transform="translate(-218.394 -201.225)" fill="#fff"/>
          <path id="Path_10" data-name="Path 10" d="M272.517,197.564V183.75a7.1,7.1,0,0,0-6.567,6.907A6.858,6.858,0,0,0,272.517,197.564Z" transform="translate(-222.258 -163.862)" fill="#fff"/>
          <path id="Path_11" data-name="Path 11" d="M310.435,117.157H320.8V110.25h-8.985a7.487,7.487,0,0,0-1.727,4.835C310.09,115.774,310.435,116.466,310.435,117.157Z" transform="translate(-257.066 -105.901)" fill="#fff"/>
          <path id="Path_12" data-name="Path 12" d="M293.449,110.25H280.66c.691,3.108,3.11,5.527,6.222,5.527A6.975,6.975,0,0,0,293.449,110.25Z" transform="translate(-233.858 -105.901)" fill="#fff"/>
          <path id="Path_13" data-name="Path 13" d="M209.138,110.25H195.66v6.907h10.023A10.279,10.279,0,0,0,209.138,110.25Z" transform="translate(-166.829 -105.901)" fill="#fff"/>
          <path id="Path_14" data-name="Path 14" d="M236.415,117.157h3.8a9.785,9.785,0,0,0-4.148-6.907H224.318a9.8,9.8,0,0,0-4.148,6.907h8.641v11.4h1.383a9.666,9.666,0,0,0,6.222-2.072v-9.324Z" transform="translate(-186.157 -105.901)" fill="#fff"/>
          <path id="Path_15" data-name="Path 15" d="M272.517,190.312V183.75a7.1,7.1,0,0,0-6.567,6.907,10.043,10.043,0,0,0,.691,3.108A7.129,7.129,0,0,0,272.517,190.312Z" transform="translate(-222.258 -163.862)" fill="#fff"/>
          <path id="Path_16" data-name="Path 16" d="M392.79,180.246l-9.315-13.522c4.658-1.4,8.383-5.129,8.383-10.723,0-6.994-5.123-11.19-13.508-11.19H362.98v35.436h6.055V167.658h7.918l8.383,12.588Zm-7.45-23.778c0,3.264-2.8,5.594-7.453,5.594h-8.85V150.406h8.85C382.545,150.406,385.34,152.271,385.34,156.468Z" transform="translate(-298.774 -133.154)" fill="#fff"/>
          <path id="Path_17" data-name="Path 17" d="M362.99,273.662v7.461h6.055V274.13a5.289,5.289,0,0,0-3.725-1.4A3.55,3.55,0,0,0,362.99,273.662Z" transform="translate(-298.782 -234.03)" fill="#fff"/>
          <path id="Path_18" data-name="Path 18" d="M474.448,291.554l-3.725-5.594a6.719,6.719,0,0,0-4.192,5.129l.465.467h7.453Z" transform="translate(-380.431 -244.462)" fill="#fff"/>
          <path id="Path_19" data-name="Path 19" d="M448.138,263.351l-4.658-6.061h-1.4a5.06,5.06,0,0,0-4.192,1.865l6.52,9.326A7.213,7.213,0,0,0,448.138,263.351Z" transform="translate(-357.847 -221.854)" fill="#fff"/>
          <path id="Path_20" data-name="Path 20" d="M448.347,213.472l-2.33-3.264c4.192-.932,6.987-3.729,7.918-8.393a7.115,7.115,0,0,0-4.658-1.865h-1.4c0,3.264-2.33,5.129-5.59,5.594v1.4A6.965,6.965,0,0,0,448.347,213.472Z" transform="translate(-361.316 -176.637)" fill="#fff"/>
          <path id="Path_21" data-name="Path 21" d="M417.883,208.77c.465.467.465.932.465,1.865a7.167,7.167,0,0,1-6.987,6.994c-2.8,0-5.59-2.332-6.52-5.129H410.9C414.622,212.5,417.417,211.1,417.883,208.77Z" transform="translate(-331.784 -183.592)" fill="#fff"/>
          <path id="Path_22" data-name="Path 22" d="M400.44,242.447H406.5l5.123,7.926a5.609,5.609,0,0,0,.932-3.729c0-4.2-2.795-6.994-6.52-6.994C403.7,239.65,401.372,240.582,400.44,242.447Z" transform="translate(-328.314 -207.943)" fill="#fff"/>
          <path id="Path_23" data-name="Path 23" d="M376.022,144.82H362.98v7.928a6.239,6.239,0,0,0,6.055,3.729v-6.061h7.918v-1.4A11.075,11.075,0,0,0,376.022,144.82Z" transform="translate(-298.774 -133.162)" fill="#fff"/>
          <path id="Path_24" data-name="Path 24" d="M362.99,144.82v15.387h.465a7.707,7.707,0,0,0,5.59-2.332v-7.461h1.863a7.551,7.551,0,0,0-7.453-5.594Z" transform="translate(-298.782 -133.162)" fill="#fff"/>
          <path id="Path_25" data-name="Path 25" d="M370.652,173.175l1.863-1.4v-7.461h1.863a2.417,2.417,0,0,0-.932-1.865h0c-3.26,0-6.055,2.8-6.055,5.594A5.251,5.251,0,0,0,370.652,173.175Z" transform="translate(-302.252 -147.065)" fill="#fff"/>
          <path id="Path_26" data-name="Path 26" d="M362.99,197.75v18.184h1.4a13.8,13.8,0,0,0,4.658-.932v-5.594h4.192a8.643,8.643,0,0,0,0-5.594h-4.192v-5.129c-1.4-.932-2.795-.932-4.658-.932Q363.687,197.749,362.99,197.75Z" transform="translate(-298.782 -174.902)" fill="#fff"/>
          <path id="Path_27" data-name="Path 27" d="M374,266.364a8.773,8.773,0,0,0,3.725-.932V261.7C375.865,262.167,374.467,264.032,374,266.364Z" transform="translate(-307.464 -225.332)" fill="#fff"/>
          <path id="Path_28" data-name="Path 28" d="M377.727,281.113V274.12l-2.8-1.4a6.641,6.641,0,0,0-.932,2.8A6.057,6.057,0,0,0,377.727,281.113Z" transform="translate(-307.464 -234.022)" fill="#fff"/>
          <path id="Path_29" data-name="Path 29" d="M451.953,233.658,447.76,227.6a15.783,15.783,0,0,0,6.52-4.2,5.289,5.289,0,0,0-3.725-1.4,6.169,6.169,0,0,0-6.055,6.061c0,2.8,2.8,5.594,6.055,5.594C451.02,233.658,451.487,233.658,451.953,233.658Z" transform="translate(-363.059 -194.025)" fill="#fff"/>
          <path id="Path_31" data-name="Path 31" d="M468.74,92.012l2.328-2.332,1.863,2.332-1.863,1.865Z" transform="translate(-382.174 -89.68)" fill="#fff"/>
          <path id="Path_32" data-name="Path 32" d="M435.69,92.012l2.328-2.332,2.33,2.332-2.33,2.332Z" transform="translate(-356.112 -89.68)" fill="#fff"/>
          <path id="Path_33" data-name="Path 33" d="M413.66,122.425l1.863-1.865,2.33,1.865-2.33,1.865Z" transform="translate(-338.739 -114.031)" fill="#fff"/>
          <path id="Path_34" data-name="Path 34" d="M479.75,147.617l2.33-2.8,2.793,2.8-2.328,2.8Z" transform="translate(-390.856 -133.162)" fill="#fff"/>
          <path id="Path_35" data-name="Path 35" d="M422.47,147.15l2.795-2.33,2.795,2.8-2.795,2.332Z" transform="translate(-345.687 -133.162)" fill="#fff"/>
          <path id="Path_36" data-name="Path 36" d="M440.1,120.347l4.19-4.2,4.192,4.2-4.192,4.195Z" transform="translate(-359.589 -110.554)" fill="#fff"/>
          <path id="Path_37" data-name="Path 37" d="M446.7,160.037l4.192-4.2,4.193,4.664-4.193,4.2Z" transform="translate(-364.794 -141.852)" fill="#fff"/>
          <path id="Path_38" data-name="Path 38" d="M424.67,183.364l3.262-3.264,3.725,3.732-3.725,3.262Z" transform="translate(-347.421 -160.983)" fill="#fff"/>
          <path id="Path_39" data-name="Path 39" d="M468.74,200.08l2.328-2.33,1.863,2.33-1.863,1.865Z" transform="translate(-382.174 -174.902)" fill="#fff"/>
          <path id="Path_40" data-name="Path 40" d="M479.75,96.209l6.055-6.529,6.055,6.529-6.055,6.061Z" transform="translate(-390.856 -89.68)" fill="#fff"/>
          <path id="Path_41" data-name="Path 41" d="M512.8,148.549l3.725-3.729,3.727,3.729-3.727,3.729Z" transform="translate(-416.919 -133.162)" fill="#fff"/>
          <path id="Path_42" data-name="Path 42" d="M488.56,175.009l3.727-3.729,3.725,3.729-3.725,3.732Z" transform="translate(-397.804 -154.028)" fill="#fff"/>
          <path id="Path_43" data-name="Path 43" d="M526.01,191.719l3.262-2.8,3.26,3.264-3.26,2.8Z" transform="translate(-427.336 -167.939)" fill="#fff"/>
          <path id="Path_44" data-name="Path 44" d="M530.42,129.037l2.33-1.867,1.863,1.867L532.75,130.9Z" transform="translate(-430.814 -119.244)" fill="#fff"/>
          <g id="Group_2" data-name="Group 2" transform="translate(0 11.357)">
            <path id="Path_45" data-name="Path 45" d="M87.7,143.4H59.29v38.155H88.168v-6.049H66.275V165.269h19.1v-6.049h-19.1v-9.772H87.7Z" transform="translate(-59.29 -143.4)" fill="#fff"/>
            <path id="Path_46" data-name="Path 46" d="M124.18,143.4H106.015a6.9,6.9,0,0,0-.465,3.258,5.9,5.9,0,0,0,.465,2.791H124.18Z" transform="translate(-95.77 -143.4)" fill="#fff"/>
            <path id="Path_47" data-name="Path 47" d="M72.33,143.4H59.29v17.216c1.4,0,2.33.465,3.725.465,1.863,0,3.725-.93,5.59-1.86h-2.33v-9.772h7.918A9.347,9.347,0,0,0,72.33,143.4Z" transform="translate(-59.29 -143.4)" fill="#fff"/>
            <path id="Path_48" data-name="Path 48" d="M68.01,205.692v-7.444h19.1c.465-.93,0-1.86,0-2.791s.465-2.326,0-3.258H68.01V185.22a11.295,11.295,0,0,0,0,20.472Z" transform="translate(-61.025 -176.378)" fill="#fff"/>
            <path id="Path_49" data-name="Path 49" d="M59.29,187.42v22.334a12.817,12.817,0,0,0,6.987-3.723v-6.049h2.795v-1.4a16.47,16.47,0,0,0-.932-4.653H66.277v-2.791A12.824,12.824,0,0,0,59.29,187.42Z" transform="translate(-59.29 -178.113)" fill="#fff"/>
            <path id="Path_50" data-name="Path 50" d="M59.29,269.78v10.7h16.3a9.344,9.344,0,0,0-1.863-6.049H66.275v-5.118c-.932,0-1.4-.465-2.33-.465A16.571,16.571,0,0,0,59.29,269.78Z" transform="translate(-59.29 -242.327)" fill="#fff"/>
            <path id="Path_52" data-name="Path 52" d="M184.86,231.093l2.33-1.863,2.328,2.328-2.328,1.86Z" transform="translate(-158.312 -211.084)" fill="#fff"/>
            <path id="Path_53" data-name="Path 53" d="M145.21,229.358,148,227.03l2.795,2.793L148,232.148Z" transform="translate(-127.045 -209.349)" fill="#fff"/>
            <path id="Path_54" data-name="Path 54" d="M120.97,264.568l1.863-2.328,2.33,2.328-1.863,2.326Z" transform="translate(-107.93 -237.115)" fill="#fff"/>
            <path id="Path_55" data-name="Path 55" d="M195.88,294.108l3.26-3.258,3.26,3.258-3.26,3.256Z" transform="translate(-167.002 -259.676)" fill="#fff"/>
            <path id="Path_56" data-name="Path 56" d="M129.78,294.108l3.262-3.258,3.26,3.258-3.26,3.256Z" transform="translate(-114.877 -259.676)" fill="#fff"/>
            <path id="Path_57" data-name="Path 57" d="M151.81,262.493l4.66-4.653,5.123,4.653-5.123,5.118Z" transform="translate(-132.249 -233.645)" fill="#fff"/>
            <path id="Path_58" data-name="Path 58" d="M158.42,310.913l5.125-4.653,4.658,5.119-4.658,4.653Z" transform="translate(-137.462 -271.828)" fill="#fff"/>
            <path id="Path_59" data-name="Path 59" d="M131.99,338.593l4.19-3.723,3.727,3.723-3.727,3.721Z" transform="translate(-116.62 -294.389)" fill="#fff"/>
            <path id="Path_60" data-name="Path 60" d="M184.86,357.006l2.33-2.326,2.328,2.326-2.328,2.326Z" transform="translate(-158.312 -310.011)" fill="#fff"/>
            <path id="Path_61" data-name="Path 61" d="M195.88,236.209l6.985-6.979,7.453,6.979-6.987,7.446Z" transform="translate(-167.002 -211.084)" fill="#fff"/>
            <path id="Path_62" data-name="Path 62" d="M235.53,295.038l4.658-4.188,4.193,4.653-4.193,4.188Z" transform="translate(-198.269 -259.676)" fill="#fff"/>
            <path id="Path_63" data-name="Path 63" d="M206.89,328.056l4.192-4.186,4.192,4.186-4.192,4.188Z" transform="translate(-175.684 -285.715)" fill="#fff"/>
            <path id="Path_64" data-name="Path 64" d="M250.95,345.193l3.727-3.723,3.725,4.188-3.725,3.721Z" transform="translate(-210.429 -299.594)" fill="#fff"/>
            <path id="Path_65" data-name="Path 65" d="M257.56,273.376l2.33-2.326,2.328,2.326L259.89,275.7Z" transform="translate(-215.642 -244.062)" fill="#fff"/>
            <path id="Path_66" data-name="Path 66" d="M59.29,176.885v13.028c.465,0,3.725.465,6.055-.93a6.631,6.631,0,0,0,1.863-3.723h-.932v-7.444a5.7,5.7,0,0,0-4.192-1.4A5.907,5.907,0,0,0,59.29,176.885Z" transform="translate(-59.29 -169.439)" fill="#fff"/>
            <path id="Path_67" data-name="Path 67" d="M59.29,238.513v12.1a5.073,5.073,0,0,0,2.33.465,8.283,8.283,0,0,0,4.658-1.861v-9.3a9.843,9.843,0,0,0-4.658-1.86A3.5,3.5,0,0,0,59.29,238.513Z" transform="translate(-59.29 -218.039)" fill="#fff"/>
          </g>
        </g>
      </g>
    </g>
  </g>
</svg>
