<svg xmlns="http://www.w3.org/2000/svg" width="196.872" height="224.822" viewBox="0 0 196.872 224.822">
  <g id="Group_2931" data-name="Group 2931" transform="translate(-1076.6 -1031.449)">
    <path id="shield" d="M197.719,41.906c-.2-3.679-2.578-6.724-5.752-7.372C154.353,26.827,138.528,20.8,104.558,3.325c-3.4-1.443-5.5-1.422-8.743,0-33.97,17.5-49.8,23.5-87.409,31.208-3.174.648-5.55,3.693-5.752,7.372-1.685,30.54,1.9,58.983,10.652,84.547a179.28,179.28,0,0,0,31.228,56.189c19.531,23.708,41.183,37.55,52.351,42.789a7.734,7.734,0,0,0,6.6,0c11.8-5.46,32.658-18.9,52.338-42.8a179.272,179.272,0,0,0,31.228-56.175c8.755-25.564,12.337-54.007,10.652-84.547Z" transform="translate(1074.855 1029.568)" fill="none" stroke="#9db1bc" stroke-width="1"/>
    <path id="shield-2" data-name="shield" d="M185.035,39.332a7.2,7.2,0,0,0-5.379-6.894C144.484,25.233,129.685,19.6,97.92,3.256a8.817,8.817,0,0,0-8.175,0C57.979,19.615,43.18,25.226,8.007,32.439a7.2,7.2,0,0,0-5.379,6.894C1.053,67.891,4.4,94.488,12.589,118.393a167.647,167.647,0,0,0,29.2,52.543c18.264,22.17,38.511,35.113,48.954,40.012a7.232,7.232,0,0,0,6.175,0c11.036-5.105,30.539-17.676,48.942-40.019a167.64,167.64,0,0,0,29.2-52.53c8.187-23.905,11.536-50.5,9.961-79.061Z" transform="translate(1080.564 1037.514)" fill="#9db1bc"/>
    <path id="Subtraction_2" data-name="Subtraction 2" d="M.322,209.391c-.1,0-.213,0-.322-.007V.006C.1,0,.2,0,.285,0A10.431,10.431,0,0,1,4.412,1C35.541,17.017,50.046,22.79,86.147,30.189a7.185,7.185,0,0,1,5.382,6.893l-.014.005c1.578,28.556-1.774,55.156-9.959,79.063a173.327,173.327,0,0,1-12.389,27.872,162.266,162.266,0,0,1-16.811,24.657,168.193,168.193,0,0,1-27.235,26.474A117.936,117.936,0,0,1,3.41,208.7,7.257,7.257,0,0,1,.322,209.391Z" transform="translate(1174.387 1039.712)" fill="#c3d1d8"/>
    <g id="Layer_4" transform="translate(1121.243 1113.668)">
      <g id="Group_4" data-name="Group 4" transform="translate(0 0)">
        <g id="Group_3" data-name="Group 3" transform="translate(0 0)">
          <path id="Path_7" data-name="Path 7" d="M217.206,117.2h13.552V110.25h-35.1V117.2h13.9v36.114h7.645Z" transform="translate(-166.67 -105.877)" fill="#fff"/>
          <path id="Path_8" data-name="Path 8" d="M261.05,281.172v5.9h7.645v-5.557a6.683,6.683,0,0,0-4.171-1.388A5.863,5.863,0,0,0,261.05,281.172Z" transform="translate(-218.159 -239.643)" fill="#fff"/>
          <path id="Path_9" data-name="Path 9" d="M261.05,233.906v8.682a6.312,6.312,0,0,0,5.561,2.778c.7,0,1.39-.347,2.086-.347V231.477c-.7,0-1.39-.347-2.086-.347A6.305,6.305,0,0,0,261.05,233.906Z" transform="translate(-218.159 -201.06)" fill="#fff"/>
          <path id="Path_10" data-name="Path 10" d="M272.553,197.64V183.75a7.135,7.135,0,0,0-6.6,6.945A6.9,6.9,0,0,0,272.553,197.64Z" transform="translate(-222.017 -163.752)" fill="#fff"/>
          <path id="Path_11" data-name="Path 11" d="M310.437,117.2h10.425V110.25h-9.035a7.528,7.528,0,0,0-1.737,4.862C310.09,115.8,310.437,116.5,310.437,117.2Z" transform="translate(-256.774 -105.877)" fill="#fff"/>
          <path id="Path_12" data-name="Path 12" d="M293.519,110.25H280.66c.7,3.125,3.127,5.557,6.256,5.557A7.013,7.013,0,0,0,293.519,110.25Z" transform="translate(-233.6 -105.877)" fill="#fff"/>
          <path id="Path_13" data-name="Path 13" d="M209.212,110.25H195.66V117.2h10.079A10.335,10.335,0,0,0,209.212,110.25Z" transform="translate(-166.67 -105.877)" fill="#fff"/>
          <path id="Path_14" data-name="Path 14" d="M236.5,117.2h3.822a9.839,9.839,0,0,0-4.171-6.945H224.341a9.854,9.854,0,0,0-4.171,6.945h8.688v11.458h1.39a9.719,9.719,0,0,0,6.256-2.083V117.2Z" transform="translate(-185.969 -105.877)" fill="#fff"/>
          <path id="Path_15" data-name="Path 15" d="M272.553,190.349v-6.6a7.135,7.135,0,0,0-6.6,6.945,10.1,10.1,0,0,0,.7,3.125A7.169,7.169,0,0,0,272.553,190.349Z" transform="translate(-222.017 -163.752)" fill="#fff"/>
          <path id="Path_16" data-name="Path 16" d="M392.954,180.441l-9.367-13.6c4.683-1.407,8.429-5.157,8.429-10.782,0-7.032-5.151-11.252-13.582-11.252H362.98v35.631h6.089V167.784h7.961l8.429,12.657Zm-7.491-23.909c0,3.282-2.81,5.625-7.494,5.625h-8.9v-11.72h8.9C382.653,150.437,385.463,152.312,385.463,156.532Z" transform="translate(-298.42 -133.09)" fill="#fff"/>
          <path id="Path_17" data-name="Path 17" d="M362.99,273.668v7.5h6.088v-7.032a5.318,5.318,0,0,0-3.746-1.407A3.57,3.57,0,0,0,362.99,273.668Z" transform="translate(-298.428 -233.816)" fill="#fff"/>
          <path id="Path_18" data-name="Path 18" d="M474.491,291.585l-3.746-5.625a6.756,6.756,0,0,0-4.216,5.157l.468.47h7.494Z" transform="translate(-379.957 -244.234)" fill="#fff"/>
          <path id="Path_19" data-name="Path 19" d="M448.194,263.385l-4.683-6.095h-1.405a5.088,5.088,0,0,0-4.216,1.875l6.556,9.377A7.253,7.253,0,0,0,448.194,263.385Z" transform="translate(-357.405 -221.659)" fill="#fff"/>
          <path id="Path_20" data-name="Path 20" d="M448.381,213.547l-2.343-3.282c4.216-.938,7.026-3.75,7.961-8.44a7.154,7.154,0,0,0-4.683-1.875h-1.405c0,3.282-2.343,5.157-5.621,5.625v1.407A7,7,0,0,0,448.381,213.547Z" transform="translate(-360.87 -176.508)" fill="#fff"/>
          <path id="Path_21" data-name="Path 21" d="M417.954,208.77c.468.47.468.937.468,1.875a7.207,7.207,0,0,1-7.026,7.032c-2.81,0-5.621-2.345-6.556-5.157h6.088C414.676,212.522,417.487,211.115,417.954,208.77Z" transform="translate(-331.381 -183.453)" fill="#fff"/>
          <path id="Path_22" data-name="Path 22" d="M400.44,242.462h6.088l5.151,7.97a5.64,5.64,0,0,0,.937-3.75c0-4.22-2.81-7.032-6.556-7.032C403.718,239.65,401.378,240.587,400.44,242.462Z" transform="translate(-327.917 -207.769)" fill="#fff"/>
          <path id="Path_23" data-name="Path 23" d="M376.094,144.82H362.98v7.972a6.273,6.273,0,0,0,6.088,3.75v-6.095h7.961V149.04A11.136,11.136,0,0,0,376.094,144.82Z" transform="translate(-298.42 -133.098)" fill="#fff"/>
          <path id="Path_24" data-name="Path 24" d="M362.99,144.82v15.472h.468a7.749,7.749,0,0,0,5.621-2.345v-7.5h1.873a7.592,7.592,0,0,0-7.494-5.625Z" transform="translate(-298.428 -133.098)" fill="#fff"/>
          <path id="Path_25" data-name="Path 25" d="M370.67,173.234l1.873-1.407v-7.5h1.873a2.43,2.43,0,0,0-.937-1.875h0c-3.278,0-6.088,2.812-6.088,5.625A5.28,5.28,0,0,0,370.67,173.234Z" transform="translate(-301.893 -146.98)" fill="#fff"/>
          <path id="Path_26" data-name="Path 26" d="M362.99,197.75v18.284H364.4a13.873,13.873,0,0,0,4.683-.937v-5.625h4.216a8.692,8.692,0,0,0,0-5.625h-4.216V198.69c-1.405-.938-2.81-.938-4.683-.938Q363.69,197.749,362.99,197.75Z" transform="translate(-298.428 -174.776)" fill="#fff"/>
          <path id="Path_27" data-name="Path 27" d="M374,266.39a8.821,8.821,0,0,0,3.746-.937V261.7C375.875,262.17,374.47,264.045,374,266.39Z" transform="translate(-307.097 -225.131)" fill="#fff"/>
          <path id="Path_28" data-name="Path 28" d="M377.748,281.16v-7.032l-2.81-1.407a6.678,6.678,0,0,0-.938,2.812A6.09,6.09,0,0,0,377.748,281.16Z" transform="translate(-307.097 -233.808)" fill="#fff"/>
          <path id="Path_29" data-name="Path 29" d="M451.994,233.722l-4.216-6.095a15.871,15.871,0,0,0,6.556-4.22A5.319,5.319,0,0,0,450.588,222a6.2,6.2,0,0,0-6.088,6.095c0,2.813,2.81,5.625,6.088,5.625C451.056,233.722,451.526,233.722,451.994,233.722Z" transform="translate(-362.61 -193.871)" fill="#fff"/>
          <path id="Path_31" data-name="Path 31" d="M468.74,92.025l2.341-2.345,1.873,2.345L471.081,93.9Z" transform="translate(-381.697 -89.68)" fill="#fff"/>
          <path id="Path_32" data-name="Path 32" d="M435.69,92.025l2.341-2.345,2.343,2.345-2.343,2.345Z" transform="translate(-355.673 -89.68)" fill="#fff"/>
          <path id="Path_33" data-name="Path 33" d="M413.66,122.435l1.873-1.875,2.343,1.875-2.343,1.875Z" transform="translate(-338.326 -113.995)" fill="#fff"/>
          <path id="Path_34" data-name="Path 34" d="M479.75,147.633l2.343-2.813,2.808,2.813-2.341,2.812Z" transform="translate(-390.366 -133.098)" fill="#fff"/>
          <path id="Path_35" data-name="Path 35" d="M422.47,147.163l2.81-2.343,2.81,2.813-2.81,2.345Z" transform="translate(-345.263 -133.098)" fill="#fff"/>
          <path id="Path_36" data-name="Path 36" d="M440.1,120.37l4.213-4.22,4.216,4.22-4.216,4.218Z" transform="translate(-359.145 -110.523)" fill="#fff"/>
          <path id="Path_37" data-name="Path 37" d="M446.7,160.06l4.216-4.22,4.216,4.69-4.216,4.22Z" transform="translate(-364.342 -141.775)" fill="#fff"/>
          <path id="Path_38" data-name="Path 38" d="M424.67,183.382l3.28-3.282,3.746,3.752-3.746,3.28Z" transform="translate(-346.996 -160.878)" fill="#fff"/>
          <path id="Path_39" data-name="Path 39" d="M468.74,200.093l2.341-2.343,1.873,2.343-1.873,1.875Z" transform="translate(-381.697 -174.776)" fill="#fff"/>
          <path id="Path_40" data-name="Path 40" d="M479.75,96.245l6.088-6.565,6.088,6.565-6.088,6.095Z" transform="translate(-390.366 -89.68)" fill="#fff"/>
          <path id="Path_41" data-name="Path 41" d="M512.8,148.57l3.746-3.75,3.748,3.75-3.748,3.75Z" transform="translate(-416.391 -133.098)" fill="#fff"/>
          <path id="Path_42" data-name="Path 42" d="M488.56,175.03l3.748-3.75,3.746,3.75-3.746,3.752Z" transform="translate(-397.304 -153.933)" fill="#fff"/>
          <path id="Path_43" data-name="Path 43" d="M526.01,191.735l3.28-2.815,3.278,3.282-3.278,2.812Z" transform="translate(-426.792 -167.823)" fill="#fff"/>
          <path id="Path_44" data-name="Path 44" d="M530.42,129.047l2.343-1.877,1.873,1.877-1.873,1.875Z" transform="translate(-430.265 -119.2)" fill="#fff"/>
          <g id="Group_2" data-name="Group 2" transform="translate(0 11.42)">
            <path id="Path_45" data-name="Path 45" d="M87.857,143.4H59.29v38.365H88.327v-6.082H66.314V165.39h19.2v-6.082h-19.2v-9.826H87.857Z" transform="translate(-59.29 -143.4)" fill="#fff"/>
            <path id="Path_46" data-name="Path 46" d="M124.283,143.4H106.018a6.939,6.939,0,0,0-.468,3.276,5.932,5.932,0,0,0,.468,2.806h18.265Z" transform="translate(-95.716 -143.4)" fill="#fff"/>
            <path id="Path_47" data-name="Path 47" d="M72.4,143.4H59.29v17.311c1.405,0,2.343.468,3.746.468,1.873,0,3.746-.935,5.621-1.871H66.314v-9.826h7.961A9.4,9.4,0,0,0,72.4,143.4Z" transform="translate(-59.29 -143.4)" fill="#fff"/>
            <path id="Path_48" data-name="Path 48" d="M68.046,205.8v-7.485h19.2c.468-.935,0-1.871,0-2.806s.468-2.338,0-3.276h-19.2V185.22a11.357,11.357,0,0,0,0,20.585Z" transform="translate(-61.022 -176.33)" fill="#fff"/>
            <path id="Path_49" data-name="Path 49" d="M59.29,187.42v22.458a12.888,12.888,0,0,0,7.026-3.744v-6.082h2.81v-1.4a16.561,16.561,0,0,0-.937-4.679H66.316v-2.806A12.9,12.9,0,0,0,59.29,187.42Z" transform="translate(-59.29 -178.062)" fill="#fff"/>
            <path id="Path_50" data-name="Path 50" d="M59.29,269.785v10.761H75.682a9.4,9.4,0,0,0-1.873-6.082h-7.5v-5.147c-.937,0-1.405-.468-2.343-.468A16.663,16.663,0,0,0,59.29,269.785Z" transform="translate(-59.29 -242.181)" fill="#fff"/>
            <path id="Path_52" data-name="Path 52" d="M184.86,231.1l2.343-1.873,2.341,2.341-2.341,1.871Z" transform="translate(-158.166 -210.984)" fill="#fff"/>
            <path id="Path_53" data-name="Path 53" d="M145.21,229.371l2.808-2.341,2.81,2.808-2.81,2.338Z" transform="translate(-126.945 -209.251)" fill="#fff"/>
            <path id="Path_54" data-name="Path 54" d="M120.97,264.581l1.873-2.341,2.343,2.341-1.873,2.338Z" transform="translate(-107.858 -236.976)" fill="#fff"/>
            <path id="Path_55" data-name="Path 55" d="M195.88,294.126l3.278-3.276,3.278,3.276-3.278,3.274Z" transform="translate(-166.843 -259.504)" fill="#fff"/>
            <path id="Path_56" data-name="Path 56" d="M129.78,294.126l3.28-3.276,3.278,3.276L133.06,297.4Z" transform="translate(-114.795 -259.504)" fill="#fff"/>
            <path id="Path_57" data-name="Path 57" d="M151.81,262.519l4.685-4.679,5.151,4.679-5.151,5.147Z" transform="translate(-132.142 -233.512)" fill="#fff"/>
            <path id="Path_58" data-name="Path 58" d="M158.42,310.939l5.153-4.679,4.683,5.147-4.683,4.679Z" transform="translate(-137.346 -271.638)" fill="#fff"/>
            <path id="Path_59" data-name="Path 59" d="M131.99,338.614l4.213-3.744,3.748,3.744-3.748,3.742Z" transform="translate(-116.535 -294.166)" fill="#fff"/>
            <path id="Path_60" data-name="Path 60" d="M184.86,357.018l2.343-2.338,2.341,2.338-2.341,2.338Z" transform="translate(-158.166 -309.765)" fill="#fff"/>
            <path id="Path_61" data-name="Path 61" d="M195.88,236.247l7.024-7.017,7.494,7.017-7.026,7.487Z" transform="translate(-166.843 -210.984)" fill="#fff"/>
            <path id="Path_62" data-name="Path 62" d="M235.53,295.061l4.683-4.211,4.216,4.679-4.216,4.211Z" transform="translate(-198.064 -259.504)" fill="#fff"/>
            <path id="Path_63" data-name="Path 63" d="M206.89,328.079l4.216-4.209,4.216,4.209-4.216,4.211Z" transform="translate(-175.512 -285.505)" fill="#fff"/>
            <path id="Path_64" data-name="Path 64" d="M250.95,345.214l3.748-3.744,3.746,4.211-3.746,3.741Z" transform="translate(-210.206 -299.363)" fill="#fff"/>
            <path id="Path_65" data-name="Path 65" d="M257.56,273.388l2.343-2.338,2.341,2.338-2.341,2.338Z" transform="translate(-215.411 -243.914)" fill="#fff"/>
            <path id="Path_66" data-name="Path 66" d="M59.29,176.888v13.1c.468,0,3.746.468,6.088-.935a6.668,6.668,0,0,0,1.873-3.744h-.937v-7.485a5.733,5.733,0,0,0-4.216-1.4A5.94,5.94,0,0,0,59.29,176.888Z" transform="translate(-59.29 -169.4)" fill="#fff"/>
            <path id="Path_67" data-name="Path 67" d="M59.29,238.516V250.68a5.1,5.1,0,0,0,2.343.468,8.329,8.329,0,0,0,4.683-1.871v-9.356a9.9,9.9,0,0,0-4.683-1.871A3.515,3.515,0,0,0,59.29,238.516Z" transform="translate(-59.29 -217.929)" fill="#fff"/>
          </g>
        </g>
      </g>
    </g>
  </g>
</svg>
