<svg xmlns="http://www.w3.org/2000/svg" width="196.564" height="224.471" viewBox="0 0 196.564 224.471">
  <g id="Group_2931" data-name="Group 2931" transform="translate(-1076.6 -1031.448)">
    <path id="shield" d="M197.412,41.843c-.2-3.673-2.574-6.713-5.743-7.36C154.115,26.789,138.314,20.77,104.4,3.324c-3.39-1.441-5.488-1.42-8.729,0C61.752,20.791,45.952,26.782,8.4,34.483c-3.169.647-5.541,3.687-5.743,7.36-1.682,30.492,1.894,58.89,10.635,84.414a179,179,0,0,0,31.179,56.1c19.5,23.671,41.118,37.491,52.269,42.722a7.722,7.722,0,0,0,6.593,0c11.784-5.451,32.607-18.873,52.256-42.729a178.991,178.991,0,0,0,31.179-56.087c8.741-25.524,12.318-53.922,10.635-84.414Z" transform="translate(1074.855 1029.568)" fill="none" stroke="#d2b830" stroke-width="1"/>
    <path id="shield-2" data-name="shield" d="M184.748,39.274a7.192,7.192,0,0,0-5.37-6.883C144.26,25.2,129.485,19.568,97.769,3.254a8.8,8.8,0,0,0-8.163,0C57.891,19.588,43.116,25.19,8,32.391a7.192,7.192,0,0,0-5.37,6.883C1.054,67.788,4.4,94.343,12.573,118.211a167.383,167.383,0,0,0,29.156,52.461c18.235,22.135,38.45,35.058,48.877,39.95a7.221,7.221,0,0,0,6.165,0c11.019-5.1,30.491-17.648,48.865-39.956a167.377,167.377,0,0,0,29.156-52.448c8.174-23.868,11.518-50.423,9.945-78.937Z" transform="translate(1080.556 1037.502)" fill="#d2b830"/>
    <path id="Subtraction_2" data-name="Subtraction 2" d="M.321,209.063c-.1,0-.212,0-.321-.007V.006C.1,0,.2,0,.284,0A10.415,10.415,0,0,1,4.4,1C35.485,16.991,49.967,22.755,86.011,30.141a7.174,7.174,0,0,1,5.374,6.883l-.014.005C92.946,65.54,89.6,92.1,81.427,115.968A173.057,173.057,0,0,1,69.057,143.8a162.013,162.013,0,0,1-16.785,24.619A167.929,167.929,0,0,1,25.08,194.847,117.749,117.749,0,0,1,3.4,208.372,7.246,7.246,0,0,1,.321,209.063Z" transform="translate(1174.234 1039.699)" fill="#f4e169"/>
    <g id="Layer_4" transform="translate(1121.173 1113.539)">
      <g id="Group_4" data-name="Group 4" transform="translate(0 0)">
        <g id="Group_3" data-name="Group 3" transform="translate(0 0)">
          <path id="Path_7" data-name="Path 7" d="M217.172,117.184H230.7V110.25H195.66v6.934h13.879v36.057h7.633Z" transform="translate(-166.715 -105.884)" fill="#fff"/>
          <path id="Path_8" data-name="Path 8" d="M261.05,281.17v5.894h7.633v-5.548a6.673,6.673,0,0,0-4.164-1.386A5.853,5.853,0,0,0,261.05,281.17Z" transform="translate(-218.226 -239.707)" fill="#fff"/>
          <path id="Path_9" data-name="Path 9" d="M261.05,233.9v8.668a6.3,6.3,0,0,0,5.552,2.774c.694,0,1.388-.346,2.082-.346V231.476c-.694,0-1.388-.346-2.082-.346A6.3,6.3,0,0,0,261.05,233.9Z" transform="translate(-218.226 -201.107)" fill="#fff"/>
          <path id="Path_10" data-name="Path 10" d="M272.543,197.618V183.75a7.124,7.124,0,0,0-6.593,6.934A6.885,6.885,0,0,0,272.543,197.618Z" transform="translate(-222.086 -163.783)" fill="#fff"/>
          <path id="Path_11" data-name="Path 11" d="M310.436,117.184h10.409V110.25h-9.021a7.516,7.516,0,0,0-1.734,4.854C310.09,115.8,310.436,116.49,310.436,117.184Z" transform="translate(-256.857 -105.884)" fill="#fff"/>
          <path id="Path_12" data-name="Path 12" d="M293.5,110.25H280.66c.694,3.12,3.122,5.548,6.247,5.548A7,7,0,0,0,293.5,110.25Z" transform="translate(-233.674 -105.884)" fill="#fff"/>
          <path id="Path_13" data-name="Path 13" d="M209.191,110.25H195.66v6.934h10.063A10.319,10.319,0,0,0,209.191,110.25Z" transform="translate(-166.715 -105.884)" fill="#fff"/>
          <path id="Path_14" data-name="Path 14" d="M236.479,117.184H240.3a9.824,9.824,0,0,0-4.164-6.934h-11.8a9.838,9.838,0,0,0-4.164,6.934h8.675v11.44h1.388a9.7,9.7,0,0,0,6.247-2.08v-9.36Z" transform="translate(-186.023 -105.884)" fill="#fff"/>
          <path id="Path_15" data-name="Path 15" d="M272.543,190.338V183.75a7.124,7.124,0,0,0-6.593,6.934,10.085,10.085,0,0,0,.694,3.12A7.157,7.157,0,0,0,272.543,190.338Z" transform="translate(-222.086 -163.783)" fill="#fff"/>
          <path id="Path_16" data-name="Path 16" d="M392.907,180.385l-9.352-13.576c4.676-1.405,8.416-5.149,8.416-10.765,0-7.021-5.143-11.234-13.561-11.234H362.98v35.575h6.079V167.748h7.949l8.416,12.637Zm-7.48-23.872c0,3.277-2.806,5.616-7.482,5.616h-8.885v-11.7h8.885C382.622,150.428,385.428,152.3,385.428,156.514Z" transform="translate(-298.521 -133.109)" fill="#fff"/>
          <path id="Path_17" data-name="Path 17" d="M362.99,273.666v7.49h6.079v-7.021a5.31,5.31,0,0,0-3.74-1.405A3.564,3.564,0,0,0,362.99,273.666Z" transform="translate(-298.529 -233.877)" fill="#fff"/>
          <path id="Path_18" data-name="Path 18" d="M474.479,291.576l-3.74-5.616a6.746,6.746,0,0,0-4.209,5.149l.467.469h7.482Z" transform="translate(-380.093 -244.299)" fill="#fff"/>
          <path id="Path_19" data-name="Path 19" d="M448.178,263.375,443.5,257.29h-1.4a5.08,5.08,0,0,0-4.209,1.872l6.546,9.362A7.241,7.241,0,0,0,448.178,263.375Z" transform="translate(-357.532 -221.715)" fill="#fff"/>
          <path id="Path_20" data-name="Path 20" d="M448.371,213.526l-2.339-3.277c4.209-.936,7.015-3.744,7.949-8.426a7.143,7.143,0,0,0-4.676-1.872h-1.4c0,3.277-2.339,5.149-5.612,5.616v1.405A6.992,6.992,0,0,0,448.371,213.526Z" transform="translate(-360.998 -176.545)" fill="#fff"/>
          <path id="Path_21" data-name="Path 21" d="M417.934,208.77c.467.469.467.936.467,1.872a7.2,7.2,0,0,1-7.015,7.021c-2.806,0-5.612-2.341-6.546-5.149h6.079C414.661,212.516,417.467,211.111,417.934,208.77Z" transform="translate(-331.497 -183.493)" fill="#fff"/>
          <path id="Path_22" data-name="Path 22" d="M400.44,242.458h6.079l5.143,7.957a5.631,5.631,0,0,0,.936-3.744c0-4.213-2.806-7.021-6.546-7.021C403.713,239.65,401.376,240.586,400.44,242.458Z" transform="translate(-328.03 -207.819)" fill="#fff"/>
          <path id="Path_23" data-name="Path 23" d="M376.074,144.82H362.98v7.959a6.263,6.263,0,0,0,6.079,3.744v-6.085h7.949v-1.405A11.119,11.119,0,0,0,376.074,144.82Z" transform="translate(-298.521 -133.116)" fill="#fff"/>
          <path id="Path_24" data-name="Path 24" d="M362.99,144.82v15.448h.467a7.737,7.737,0,0,0,5.612-2.341v-7.49h1.87a7.58,7.58,0,0,0-7.482-5.616Z" transform="translate(-298.529 -133.116)" fill="#fff"/>
          <path id="Path_25" data-name="Path 25" d="M370.665,173.217l1.87-1.405v-7.49h1.87a2.427,2.427,0,0,0-.936-1.872h0c-3.273,0-6.079,2.808-6.079,5.616A5.271,5.271,0,0,0,370.665,173.217Z" transform="translate(-301.995 -147.004)" fill="#fff"/>
          <path id="Path_26" data-name="Path 26" d="M362.99,197.75v18.256h1.4a13.852,13.852,0,0,0,4.676-.936v-5.616h4.209a8.677,8.677,0,0,0,0-5.616h-4.209v-5.149c-1.4-.936-2.806-.936-4.676-.936Q363.689,197.749,362.99,197.75Z" transform="translate(-298.529 -174.812)" fill="#fff"/>
          <path id="Path_27" data-name="Path 27" d="M374,266.382a8.808,8.808,0,0,0,3.74-.936V261.7C375.872,262.169,374.469,264.041,374,266.382Z" transform="translate(-307.202 -225.189)" fill="#fff"/>
          <path id="Path_28" data-name="Path 28" d="M377.742,281.146v-7.021l-2.806-1.405a6.668,6.668,0,0,0-.936,2.808A6.081,6.081,0,0,0,377.742,281.146Z" transform="translate(-307.202 -233.87)" fill="#fff"/>
          <path id="Path_29" data-name="Path 29" d="M451.982,233.7l-4.209-6.085a15.845,15.845,0,0,0,6.546-4.213,5.31,5.31,0,0,0-3.74-1.405,6.193,6.193,0,0,0-6.079,6.085c0,2.808,2.806,5.616,6.079,5.616C451.046,233.7,451.515,233.7,451.982,233.7Z" transform="translate(-362.739 -193.915)" fill="#fff"/>
          <path id="Path_31" data-name="Path 31" d="M468.74,92.021l2.337-2.341,1.87,2.341-1.87,1.872Z" transform="translate(-381.834 -89.68)" fill="#fff"/>
          <path id="Path_32" data-name="Path 32" d="M435.69,92.021l2.337-2.341,2.339,2.341-2.339,2.341Z" transform="translate(-355.799 -89.68)" fill="#fff"/>
          <path id="Path_33" data-name="Path 33" d="M413.66,122.432l1.87-1.872,2.339,1.872L415.53,124.3Z" transform="translate(-338.444 -114.006)" fill="#fff"/>
          <path id="Path_34" data-name="Path 34" d="M479.75,147.628l2.339-2.808,2.8,2.808-2.337,2.808Z" transform="translate(-390.507 -133.116)" fill="#fff"/>
          <path id="Path_35" data-name="Path 35" d="M422.47,147.159l2.806-2.339,2.806,2.808-2.806,2.341Z" transform="translate(-345.385 -133.116)" fill="#fff"/>
          <path id="Path_36" data-name="Path 36" d="M440.1,120.363l4.207-4.213,4.209,4.213-4.209,4.211Z" transform="translate(-359.273 -110.532)" fill="#fff"/>
          <path id="Path_37" data-name="Path 37" d="M446.7,160.053l4.209-4.213,4.209,4.682-4.209,4.213Z" transform="translate(-364.472 -141.797)" fill="#fff"/>
          <path id="Path_38" data-name="Path 38" d="M424.67,183.377l3.275-3.277,3.74,3.746-3.74,3.275Z" transform="translate(-347.118 -160.908)" fill="#fff"/>
          <path id="Path_39" data-name="Path 39" d="M468.74,200.089l2.337-2.339,1.87,2.339-1.87,1.872Z" transform="translate(-381.834 -174.812)" fill="#fff"/>
          <path id="Path_40" data-name="Path 40" d="M479.75,96.234l6.079-6.554,6.079,6.554-6.079,6.085Z" transform="translate(-390.507 -89.68)" fill="#fff"/>
          <path id="Path_41" data-name="Path 41" d="M512.8,148.564l3.74-3.744,3.742,3.744-3.742,3.744Z" transform="translate(-416.542 -133.116)" fill="#fff"/>
          <path id="Path_42" data-name="Path 42" d="M488.56,175.024l3.742-3.744,3.74,3.744-3.74,3.746Z" transform="translate(-397.447 -153.96)" fill="#fff"/>
          <path id="Path_43" data-name="Path 43" d="M526.01,191.73l3.275-2.81,3.273,3.277-3.273,2.808Z" transform="translate(-426.948 -167.856)" fill="#fff"/>
          <path id="Path_44" data-name="Path 44" d="M530.42,129.044l2.339-1.874,1.87,1.874-1.87,1.872Z" transform="translate(-430.422 -119.213)" fill="#fff"/>
          <g id="Group_2" data-name="Group 2" transform="translate(0 11.402)">
            <path id="Path_45" data-name="Path 45" d="M87.812,143.4H59.29v38.3H88.281v-6.073H66.3V165.355H85.475v-6.072H66.3v-9.81h21.51Z" transform="translate(-59.29 -143.4)" fill="#fff"/>
            <path id="Path_46" data-name="Path 46" d="M124.254,143.4H106.017a6.929,6.929,0,0,0-.467,3.271,5.922,5.922,0,0,0,.467,2.8h18.237Z" transform="translate(-95.731 -143.4)" fill="#fff"/>
            <path id="Path_47" data-name="Path 47" d="M72.382,143.4H59.29v17.284c1.4,0,2.339.467,3.74.467,1.87,0,3.74-.934,5.612-1.868H66.3v-9.81h7.949A9.384,9.384,0,0,0,72.382,143.4Z" transform="translate(-59.29 -143.4)" fill="#fff"/>
            <path id="Path_48" data-name="Path 48" d="M68.036,205.772V198.3H87.208c.467-.934,0-1.868,0-2.8s.467-2.335,0-3.271H68.036V185.22a11.339,11.339,0,0,0,0,20.552Z" transform="translate(-61.023 -176.344)" fill="#fff"/>
            <path id="Path_49" data-name="Path 49" d="M59.29,187.42v22.422A12.867,12.867,0,0,0,66.3,206.1v-6.073h2.806v-1.4a16.535,16.535,0,0,0-.936-4.672H66.3v-2.8A12.874,12.874,0,0,0,59.29,187.42Z" transform="translate(-59.29 -178.077)" fill="#fff"/>
            <path id="Path_50" data-name="Path 50" d="M59.29,269.784v10.744H75.657a9.38,9.38,0,0,0-1.87-6.073H66.3v-5.139c-.936,0-1.4-.467-2.339-.467A16.637,16.637,0,0,0,59.29,269.784Z" transform="translate(-59.29 -242.223)" fill="#fff"/>
            <path id="Path_52" data-name="Path 52" d="M184.86,231.1l2.339-1.87,2.337,2.337-2.337,1.868Z" transform="translate(-158.208 -211.012)" fill="#fff"/>
            <path id="Path_53" data-name="Path 53" d="M145.21,229.367l2.8-2.337,2.806,2.8-2.806,2.335Z" transform="translate(-126.973 -209.279)" fill="#fff"/>
            <path id="Path_54" data-name="Path 54" d="M120.97,264.577l1.87-2.337,2.339,2.337-1.87,2.335Z" transform="translate(-107.878 -237.016)" fill="#fff"/>
            <path id="Path_55" data-name="Path 55" d="M195.88,294.121l3.273-3.271,3.273,3.271-3.273,3.269Z" transform="translate(-166.889 -259.554)" fill="#fff"/>
            <path id="Path_56" data-name="Path 56" d="M129.78,294.121l3.275-3.271,3.273,3.271-3.273,3.269Z" transform="translate(-114.818 -259.554)" fill="#fff"/>
            <path id="Path_57" data-name="Path 57" d="M151.81,262.512l4.678-4.672,5.143,4.672-5.143,5.139Z" transform="translate(-132.172 -233.55)" fill="#fff"/>
            <path id="Path_58" data-name="Path 58" d="M158.42,310.932l5.145-4.672,4.676,5.139-4.676,4.672Z" transform="translate(-137.38 -271.693)" fill="#fff"/>
            <path id="Path_59" data-name="Path 59" d="M131.99,338.608l4.207-3.738,3.742,3.738-3.742,3.736Z" transform="translate(-116.559 -294.23)" fill="#fff"/>
            <path id="Path_60" data-name="Path 60" d="M184.86,357.015l2.339-2.335,2.337,2.335L187.2,359.35Z" transform="translate(-158.208 -309.836)" fill="#fff"/>
            <path id="Path_61" data-name="Path 61" d="M195.88,236.236l7.013-7.006,7.482,7.006-7.015,7.476Z" transform="translate(-166.889 -211.012)" fill="#fff"/>
            <path id="Path_62" data-name="Path 62" d="M235.53,295.055l4.676-4.2,4.209,4.672-4.209,4.2Z" transform="translate(-198.123 -259.554)" fill="#fff"/>
            <path id="Path_63" data-name="Path 63" d="M206.89,328.073l4.209-4.2,4.209,4.2-4.209,4.2Z" transform="translate(-175.562 -285.565)" fill="#fff"/>
            <path id="Path_64" data-name="Path 64" d="M250.95,345.208l3.742-3.738,3.74,4.2-3.74,3.736Z" transform="translate(-210.27 -299.429)" fill="#fff"/>
            <path id="Path_65" data-name="Path 65" d="M257.56,273.385l2.339-2.335,2.337,2.335-2.337,2.335Z" transform="translate(-215.477 -243.956)" fill="#fff"/>
            <path id="Path_66" data-name="Path 66" d="M59.29,176.887v13.079c.467,0,3.74.467,6.079-.934a6.658,6.658,0,0,0,1.87-3.738H66.3v-7.473a5.724,5.724,0,0,0-4.209-1.4A5.931,5.931,0,0,0,59.29,176.887Z" transform="translate(-59.29 -169.411)" fill="#fff"/>
            <path id="Path_67" data-name="Path 67" d="M59.29,238.515V250.66a5.093,5.093,0,0,0,2.339.467,8.316,8.316,0,0,0,4.676-1.868v-9.341a9.882,9.882,0,0,0-4.676-1.868A3.51,3.51,0,0,0,59.29,238.515Z" transform="translate(-59.29 -217.96)" fill="#fff"/>
          </g>
        </g>
      </g>
    </g>
  </g>
</svg>
