<svg xmlns="http://www.w3.org/2000/svg" width="196.735" height="224.667" viewBox="0 0 196.735 224.667">
  <g id="Group_2931" data-name="Group 2931" transform="translate(-1076.6 -1031.448)">
    <path id="shield" d="M197.583,41.878c-.2-3.677-2.576-6.719-5.748-7.367-37.588-7.7-53.4-13.725-87.348-31.187-3.393-1.442-5.493-1.421-8.737,0C61.8,20.807,45.99,26.8,8.4,34.511c-3.172.648-5.546,3.69-5.748,7.367C.97,72.4,4.55,100.82,13.3,126.366A179.155,179.155,0,0,0,44.5,182.516c19.518,23.692,41.154,37.523,52.314,42.759a7.728,7.728,0,0,0,6.6,0c11.794-5.456,32.635-18.89,52.3-42.766a179.148,179.148,0,0,0,31.206-56.136c8.749-25.546,12.328-53.969,10.644-84.488Z" transform="translate(1074.855 1029.568)" fill="none" stroke="#c8c8c8" stroke-width="1"/>
    <path id="shield-2" data-name="shield" d="M184.908,39.307a7.2,7.2,0,0,0-5.375-6.889c-35.149-7.2-49.937-12.834-81.68-29.163a8.811,8.811,0,0,0-8.17,0C57.94,19.6,43.152,25.21,8,32.418a7.2,7.2,0,0,0-5.375,6.889C1.053,67.845,4.4,94.424,12.582,118.313a167.53,167.53,0,0,0,29.181,52.507c18.251,22.155,38.484,35.089,48.92,39.985a7.227,7.227,0,0,0,6.171,0c11.029-5.1,30.518-17.664,48.908-39.991a167.524,167.524,0,0,0,29.181-52.493c8.181-23.888,11.528-50.467,9.954-79.006Z" transform="translate(1080.56 1037.509)" fill="#c8c8c8"/>
    <path id="Subtraction_2" data-name="Subtraction 2" d="M.321,209.246c-.1,0-.213,0-.321-.007V.006C.1,0,.2,0,.285,0A10.424,10.424,0,0,1,4.409,1c31.108,16,45.6,21.771,81.678,29.164a7.18,7.18,0,0,1,5.378,6.889l-.014.005C93.028,65.6,89.679,92.18,81.5,116.069a173.209,173.209,0,0,1-12.381,27.853,162.154,162.154,0,0,1-16.8,24.64A168.075,168.075,0,0,1,25.1,195.018,117.851,117.851,0,0,1,3.408,208.554,7.252,7.252,0,0,1,.321,209.246Z" transform="translate(1174.319 1039.706)" fill="#dcdcdc"/>
    <g id="Layer_4" transform="translate(1121.212 1113.611)">
      <g id="Group_4" data-name="Group 4" transform="translate(0 0)">
        <g id="Group_3" data-name="Group 3" transform="translate(0)">
          <path id="Path_7" data-name="Path 7" d="M217.191,117.19h13.543v-6.94H195.66v6.94h13.891v36.089h7.639Z" transform="translate(-166.69 -105.88)" fill="#fff"/>
          <path id="Path_8" data-name="Path 8" d="M261.05,281.171v5.9h7.639v-5.553a6.679,6.679,0,0,0-4.168-1.387A5.859,5.859,0,0,0,261.05,281.171Z" transform="translate(-218.189 -239.671)" fill="#fff"/>
          <path id="Path_9" data-name="Path 9" d="M261.05,233.9v8.676a6.307,6.307,0,0,0,5.557,2.777c.695,0,1.389-.346,2.084-.346V231.476c-.695,0-1.389-.346-2.084-.346A6.3,6.3,0,0,0,261.05,233.9Z" transform="translate(-218.189 -201.081)" fill="#fff"/>
          <path id="Path_10" data-name="Path 10" d="M272.548,197.631V183.75a7.13,7.13,0,0,0-6.6,6.94A6.891,6.891,0,0,0,272.548,197.631Z" transform="translate(-222.048 -163.766)" fill="#fff"/>
          <path id="Path_11" data-name="Path 11" d="M310.436,117.19h10.418v-6.94h-9.029a7.523,7.523,0,0,0-1.736,4.858C310.09,115.8,310.436,116.5,310.436,117.19Z" transform="translate(-256.811 -105.88)" fill="#fff"/>
          <path id="Path_12" data-name="Path 12" d="M293.51,110.25H280.66c.695,3.123,3.125,5.553,6.252,5.553A7.008,7.008,0,0,0,293.51,110.25Z" transform="translate(-233.633 -105.88)" fill="#fff"/>
          <path id="Path_13" data-name="Path 13" d="M209.2,110.25H195.66v6.94h10.072A10.328,10.328,0,0,0,209.2,110.25Z" transform="translate(-166.69 -105.88)" fill="#fff"/>
          <path id="Path_14" data-name="Path 14" d="M236.494,117.19h3.82a9.833,9.833,0,0,0-4.168-6.94H224.338a9.847,9.847,0,0,0-4.168,6.94h8.682v11.45h1.389a9.712,9.712,0,0,0,6.252-2.082V117.19Z" transform="translate(-185.993 -105.88)" fill="#fff"/>
          <path id="Path_15" data-name="Path 15" d="M272.548,190.344V183.75a7.13,7.13,0,0,0-6.6,6.94,10.093,10.093,0,0,0,.695,3.123A7.164,7.164,0,0,0,272.548,190.344Z" transform="translate(-222.048 -163.766)" fill="#fff"/>
          <path id="Path_16" data-name="Path 16" d="M392.934,180.417l-9.36-13.587c4.68-1.406,8.423-5.154,8.423-10.775,0-7.027-5.147-11.244-13.573-11.244H362.98v35.607h6.084V167.768h7.956l8.423,12.648Zm-7.486-23.893c0,3.28-2.808,5.621-7.488,5.621h-8.893V150.433h8.893C382.639,150.433,385.447,152.307,385.447,156.524Z" transform="translate(-298.465 -133.098)" fill="#fff"/>
          <path id="Path_17" data-name="Path 17" d="M362.99,273.667v7.5h6.084v-7.027a5.315,5.315,0,0,0-3.743-1.406A3.567,3.567,0,0,0,362.99,273.667Z" transform="translate(-298.473 -233.843)" fill="#fff"/>
          <path id="Path_18" data-name="Path 18" d="M474.486,291.581l-3.743-5.621a6.752,6.752,0,0,0-4.213,5.154l.467.469h7.488Z" transform="translate(-380.017 -244.263)" fill="#fff"/>
          <path id="Path_19" data-name="Path 19" d="M448.187,263.381l-4.68-6.091h-1.4a5.084,5.084,0,0,0-4.213,1.874l6.552,9.371A7.247,7.247,0,0,0,448.187,263.381Z" transform="translate(-357.461 -221.683)" fill="#fff"/>
          <path id="Path_20" data-name="Path 20" d="M448.376,213.537l-2.341-3.28c4.213-.937,7.021-3.747,7.956-8.434a7.149,7.149,0,0,0-4.68-1.874h-1.4c0,3.28-2.341,5.154-5.617,5.621v1.406A7,7,0,0,0,448.376,213.537Z" transform="translate(-360.927 -176.525)" fill="#fff"/>
          <path id="Path_21" data-name="Path 21" d="M417.945,208.77c.468.469.468.937.468,1.874a7.2,7.2,0,0,1-7.021,7.027c-2.808,0-5.617-2.343-6.552-5.154h6.084C414.669,212.52,417.478,211.113,417.945,208.77Z" transform="translate(-331.432 -183.471)" fill="#fff"/>
          <path id="Path_22" data-name="Path 22" d="M400.44,242.461h6.084l5.147,7.964a5.636,5.636,0,0,0,.937-3.747c0-4.217-2.808-7.027-6.551-7.027C403.716,239.65,401.377,240.587,400.44,242.461Z" transform="translate(-327.967 -207.791)" fill="#fff"/>
          <path id="Path_23" data-name="Path 23" d="M376.085,144.82H362.98v7.966a6.269,6.269,0,0,0,6.084,3.747v-6.091h7.956v-1.406A11.127,11.127,0,0,0,376.085,144.82Z" transform="translate(-298.465 -133.106)" fill="#fff"/>
          <path id="Path_24" data-name="Path 24" d="M362.99,144.82v15.461h.467a7.744,7.744,0,0,0,5.617-2.343v-7.5h1.872a7.587,7.587,0,0,0-7.488-5.621Z" transform="translate(-298.473 -133.106)" fill="#fff"/>
          <path id="Path_25" data-name="Path 25" d="M370.668,173.227l1.872-1.406v-7.5h1.872a2.429,2.429,0,0,0-.937-1.874h0c-3.276,0-6.084,2.811-6.084,5.621A5.276,5.276,0,0,0,370.668,173.227Z" transform="translate(-301.938 -146.991)" fill="#fff"/>
          <path id="Path_26" data-name="Path 26" d="M362.99,197.75v18.272h1.4a13.864,13.864,0,0,0,4.68-.937v-5.621h4.213a8.684,8.684,0,0,0,0-5.621h-4.213v-5.154c-1.4-.937-2.808-.937-4.68-.937Q363.69,197.749,362.99,197.75Z" transform="translate(-298.473 -174.792)" fill="#fff"/>
          <path id="Path_27" data-name="Path 27" d="M374,266.386a8.816,8.816,0,0,0,3.743-.937V261.7C375.874,262.17,374.47,264.043,374,266.386Z" transform="translate(-307.144 -225.157)" fill="#fff"/>
          <path id="Path_28" data-name="Path 28" d="M377.745,281.154v-7.027l-2.808-1.406a6.673,6.673,0,0,0-.937,2.811A6.086,6.086,0,0,0,377.745,281.154Z" transform="translate(-307.144 -233.836)" fill="#fff"/>
          <path id="Path_29" data-name="Path 29" d="M451.988,233.714l-4.213-6.091a15.859,15.859,0,0,0,6.552-4.217A5.315,5.315,0,0,0,450.584,222a6.2,6.2,0,0,0-6.084,6.091c0,2.811,2.808,5.621,6.084,5.621C451.052,233.714,451.521,233.714,451.988,233.714Z" transform="translate(-362.667 -193.89)" fill="#fff"/>
          <path id="Path_31" data-name="Path 31" d="M468.74,92.023l2.339-2.343,1.872,2.343L471.079,93.9Z" transform="translate(-381.758 -89.68)" fill="#fff"/>
          <path id="Path_32" data-name="Path 32" d="M435.69,92.023l2.339-2.343,2.341,2.343-2.341,2.343Z" transform="translate(-355.729 -89.68)" fill="#fff"/>
          <path id="Path_33" data-name="Path 33" d="M413.66,122.434l1.872-1.874,2.341,1.874-2.341,1.874Z" transform="translate(-338.379 -114)" fill="#fff"/>
          <path id="Path_34" data-name="Path 34" d="M479.75,147.631l2.341-2.811,2.806,2.811-2.339,2.811Z" transform="translate(-390.429 -133.106)" fill="#fff"/>
          <path id="Path_35" data-name="Path 35" d="M422.47,147.161l2.808-2.341,2.808,2.811-2.808,2.343Z" transform="translate(-345.317 -133.106)" fill="#fff"/>
          <path id="Path_36" data-name="Path 36" d="M440.1,120.367l4.211-4.217,4.213,4.217-4.213,4.215Z" transform="translate(-359.202 -110.527)" fill="#fff"/>
          <path id="Path_37" data-name="Path 37" d="M446.7,160.057l4.213-4.217,4.213,4.686-4.213,4.217Z" transform="translate(-364.4 -141.785)" fill="#fff"/>
          <path id="Path_38" data-name="Path 38" d="M424.67,183.38l3.278-3.28,3.743,3.75-3.743,3.278Z" transform="translate(-347.05 -160.891)" fill="#fff"/>
          <path id="Path_39" data-name="Path 39" d="M468.74,200.091l2.339-2.341,1.872,2.341-1.872,1.874Z" transform="translate(-381.758 -174.792)" fill="#fff"/>
          <path id="Path_40" data-name="Path 40" d="M479.75,96.24l6.084-6.56,6.084,6.56-6.084,6.091Z" transform="translate(-390.429 -89.68)" fill="#fff"/>
          <path id="Path_41" data-name="Path 41" d="M512.8,148.567l3.743-3.747,3.745,3.747-3.745,3.747Z" transform="translate(-416.458 -133.106)" fill="#fff"/>
          <path id="Path_42" data-name="Path 42" d="M488.56,175.027l3.745-3.747,3.743,3.747-3.743,3.749Z" transform="translate(-397.367 -153.945)" fill="#fff"/>
          <path id="Path_43" data-name="Path 43" d="M526.01,191.733l3.278-2.813,3.276,3.28-3.276,2.811Z" transform="translate(-426.861 -167.838)" fill="#fff"/>
          <path id="Path_44" data-name="Path 44" d="M530.42,129.046l2.341-1.876,1.871,1.876-1.871,1.874Z" transform="translate(-430.335 -119.206)" fill="#fff"/>
          <g id="Group_2" data-name="Group 2" transform="translate(0 11.412)">
            <path id="Path_45" data-name="Path 45" d="M87.837,143.4H59.29v38.339H88.307v-6.078h-22V165.374H85.5V159.3H66.309v-9.819H87.837Z" transform="translate(-59.29 -143.4)" fill="#fff"/>
            <path id="Path_46" data-name="Path 46" d="M124.27,143.4H106.017a6.935,6.935,0,0,0-.467,3.274,5.928,5.928,0,0,0,.467,2.8H124.27Z" transform="translate(-95.723 -143.4)" fill="#fff"/>
            <path id="Path_47" data-name="Path 47" d="M72.393,143.4H59.29v17.3c1.4,0,2.341.467,3.743.467,1.872,0,3.743-.935,5.617-1.869H66.309v-9.819h7.956A9.392,9.392,0,0,0,72.393,143.4Z" transform="translate(-59.29 -143.4)" fill="#fff"/>
            <path id="Path_48" data-name="Path 48" d="M68.042,205.79v-7.48H87.231c.467-.935,0-1.869,0-2.8s.467-2.337,0-3.274H68.042V185.22a11.349,11.349,0,0,0,0,20.57Z" transform="translate(-61.023 -176.336)" fill="#fff"/>
            <path id="Path_49" data-name="Path 49" d="M59.29,187.42v22.442a12.879,12.879,0,0,0,7.021-3.741v-6.078h2.808v-1.4a16.55,16.55,0,0,0-.937-4.676H66.311v-2.8A12.886,12.886,0,0,0,59.29,187.42Z" transform="translate(-59.29 -178.069)" fill="#fff"/>
            <path id="Path_50" data-name="Path 50" d="M59.29,269.785v10.754H75.671a9.388,9.388,0,0,0-1.872-6.078H66.309v-5.143c-.937,0-1.4-.467-2.341-.467A16.651,16.651,0,0,0,59.29,269.785Z" transform="translate(-59.29 -242.2)" fill="#fff"/>
            <path id="Path_52" data-name="Path 52" d="M184.86,231.1l2.341-1.872,2.339,2.339-2.339,1.869Z" transform="translate(-158.184 -210.997)" fill="#fff"/>
            <path id="Path_53" data-name="Path 53" d="M145.21,229.369l2.806-2.339,2.808,2.806-2.808,2.337Z" transform="translate(-126.957 -209.264)" fill="#fff"/>
            <path id="Path_54" data-name="Path 54" d="M120.97,264.579l1.872-2.339,2.341,2.339-1.872,2.337Z" transform="translate(-107.867 -236.994)" fill="#fff"/>
            <path id="Path_55" data-name="Path 55" d="M195.88,294.124l3.276-3.274,3.276,3.274-3.276,3.272Z" transform="translate(-166.863 -259.526)" fill="#fff"/>
            <path id="Path_56" data-name="Path 56" d="M129.78,294.124l3.278-3.274,3.276,3.274-3.276,3.272Z" transform="translate(-114.805 -259.526)" fill="#fff"/>
            <path id="Path_57" data-name="Path 57" d="M151.81,262.516l4.682-4.676,5.147,4.676-5.147,5.143Z" transform="translate(-132.155 -233.529)" fill="#fff"/>
            <path id="Path_58" data-name="Path 58" d="M158.42,310.936l5.15-4.676,4.68,5.143-4.68,4.676Z" transform="translate(-137.361 -271.663)" fill="#fff"/>
            <path id="Path_59" data-name="Path 59" d="M131.99,338.611l4.21-3.741,3.745,3.741L136.2,342.35Z" transform="translate(-116.546 -294.195)" fill="#fff"/>
            <path id="Path_60" data-name="Path 60" d="M184.86,357.017l2.341-2.337,2.339,2.337-2.339,2.337Z" transform="translate(-158.184 -309.796)" fill="#fff"/>
            <path id="Path_61" data-name="Path 61" d="M195.88,236.243l7.019-7.013,7.488,7.013-7.021,7.482Z" transform="translate(-166.863 -210.997)" fill="#fff"/>
            <path id="Path_62" data-name="Path 62" d="M235.53,295.058l4.68-4.208,4.213,4.676-4.213,4.208Z" transform="translate(-198.09 -259.526)" fill="#fff"/>
            <path id="Path_63" data-name="Path 63" d="M206.89,328.076l4.213-4.206,4.213,4.206-4.213,4.208Z" transform="translate(-175.534 -285.531)" fill="#fff"/>
            <path id="Path_64" data-name="Path 64" d="M250.95,345.211l3.745-3.741,3.743,4.208-3.743,3.739Z" transform="translate(-210.234 -299.393)" fill="#fff"/>
            <path id="Path_65" data-name="Path 65" d="M257.56,273.387l2.341-2.337,2.339,2.337-2.339,2.337Z" transform="translate(-215.44 -243.932)" fill="#fff"/>
            <path id="Path_66" data-name="Path 66" d="M59.29,176.887v13.09c.467,0,3.743.467,6.084-.935a6.663,6.663,0,0,0,1.872-3.741h-.937v-7.48a5.729,5.729,0,0,0-4.213-1.4A5.936,5.936,0,0,0,59.29,176.887Z" transform="translate(-59.29 -169.405)" fill="#fff"/>
            <path id="Path_67" data-name="Path 67" d="M59.29,238.515v12.156a5.1,5.1,0,0,0,2.341.467,8.323,8.323,0,0,0,4.68-1.869V239.92a9.891,9.891,0,0,0-4.68-1.869A3.513,3.513,0,0,0,59.29,238.515Z" transform="translate(-59.29 -217.943)" fill="#fff"/>
          </g>
        </g>
      </g>
    </g>
  </g>
</svg>
