<svg xmlns="http://www.w3.org/2000/svg" width="196.298" height="224.167" viewBox="0 0 196.298 224.167">
  <g id="Group_2931" data-name="Group 2931" transform="translate(-1076.6 -1031.448)">
    <path id="shield" d="M197.147,41.789c-.2-3.668-2.57-6.7-5.735-7.35-37.5-7.684-53.283-13.694-87.153-31.117-3.385-1.439-5.481-1.418-8.717,0C61.671,20.766,45.892,26.748,8.388,34.439c-3.165.646-5.534,3.682-5.735,7.35-1.68,30.451,1.891,58.81,10.621,84.3A178.755,178.755,0,0,0,44.41,182.114c19.474,23.639,41.062,37.44,52.2,42.664a7.711,7.711,0,0,0,6.584,0c11.768-5.444,32.562-18.847,52.185-42.671A178.749,178.749,0,0,0,186.514,126.1c8.73-25.489,12.3-53.849,10.621-84.3Z" transform="translate(1074.855 1029.568)" fill="none" stroke="#c0b9b1" stroke-width="1"/>
    <path id="shield-2" data-name="shield" d="M184.5,39.224a7.183,7.183,0,0,0-5.363-6.873c-35.07-7.185-49.825-12.806-81.5-29.1a8.792,8.792,0,0,0-8.152,0C57.815,19.565,43.06,25.159,7.99,32.35a7.183,7.183,0,0,0-5.363,6.873C1.056,67.7,4.4,94.218,12.559,118.053a167.156,167.156,0,0,0,29.116,52.389c18.21,22.105,38.4,35.01,48.811,39.9a7.211,7.211,0,0,0,6.157,0c11-5.09,30.449-17.624,48.8-39.9a167.149,167.149,0,0,0,29.116-52.376c8.163-23.835,11.5-50.355,9.931-78.829Z" transform="translate(1080.548 1037.491)" fill="#c0b9b1"/>
    <path id="Subtraction_2" data-name="Subtraction 2" d="M.321,208.778c-.1,0-.212,0-.321-.007V.006C.1,0,.2,0,.284,0A10.4,10.4,0,0,1,4.4,1c31.038,15.966,45.5,21.723,81.5,29.1a7.164,7.164,0,0,1,5.366,6.873l-.014.005c1.573,28.472-1.768,54.995-9.93,78.831A172.822,172.822,0,0,1,68.963,143.6,161.792,161.792,0,0,1,52.2,168.185a167.7,167.7,0,0,1-27.156,26.4A117.59,117.59,0,0,1,3.4,208.088,7.236,7.236,0,0,1,.321,208.778Z" transform="translate(1174.102 1039.689)" fill="#dfd8d0"/>
    <g id="Layer_4" transform="translate(1121.114 1113.428)">
      <g id="Group_4" data-name="Group 4" transform="translate(0 0)">
        <g id="Group_3" data-name="Group 3" transform="translate(0)">
          <path id="Path_7" data-name="Path 7" d="M217.142,117.175h13.513V110.25h-35v6.925h13.86v36.008h7.622Z" transform="translate(-166.755 -105.89)" fill="#fff"/>
          <path id="Path_8" data-name="Path 8" d="M261.05,281.169v5.886h7.622v-5.541a6.664,6.664,0,0,0-4.159-1.384A5.846,5.846,0,0,0,261.05,281.169Z" transform="translate(-218.284 -239.762)" fill="#fff"/>
          <path id="Path_9" data-name="Path 9" d="M261.05,233.9v8.657a6.293,6.293,0,0,0,5.545,2.77c.693,0,1.386-.345,2.079-.345v-13.5c-.693,0-1.386-.346-2.079-.346A6.287,6.287,0,0,0,261.05,233.9Z" transform="translate(-218.284 -201.148)" fill="#fff"/>
          <path id="Path_10" data-name="Path 10" d="M272.534,197.6V183.75a7.114,7.114,0,0,0-6.584,6.925A6.876,6.876,0,0,0,272.534,197.6Z" transform="translate(-222.146 -163.811)" fill="#fff"/>
          <path id="Path_11" data-name="Path 11" d="M310.436,117.175H320.83V110.25h-9.008a7.506,7.506,0,0,0-1.732,4.848C310.09,115.789,310.436,116.482,310.436,117.175Z" transform="translate(-256.93 -105.89)" fill="#fff"/>
          <path id="Path_12" data-name="Path 12" d="M293.482,110.25H280.66c.693,3.116,3.118,5.541,6.238,5.541A6.993,6.993,0,0,0,293.482,110.25Z" transform="translate(-233.738 -105.89)" fill="#fff"/>
          <path id="Path_13" data-name="Path 13" d="M209.173,110.25H195.66v6.925h10.049A10.3,10.3,0,0,0,209.173,110.25Z" transform="translate(-166.755 -105.89)" fill="#fff"/>
          <path id="Path_14" data-name="Path 14" d="M236.457,117.175h3.811a9.811,9.811,0,0,0-4.159-6.925H224.329a9.825,9.825,0,0,0-4.159,6.925h8.663V128.6h1.386a9.69,9.69,0,0,0,6.238-2.077v-9.348Z" transform="translate(-186.07 -105.89)" fill="#fff"/>
          <path id="Path_15" data-name="Path 15" d="M272.534,190.329V183.75a7.114,7.114,0,0,0-6.584,6.925,10.069,10.069,0,0,0,.693,3.116A7.148,7.148,0,0,0,272.534,190.329Z" transform="translate(-222.146 -163.811)" fill="#fff"/>
          <path id="Path_16" data-name="Path 16" d="M392.867,180.337l-9.339-13.557c4.67-1.4,8.4-5.142,8.4-10.751,0-7.012-5.136-11.219-13.542-11.219H362.98v35.527h6.071v-12.62h7.938l8.4,12.62ZM385.4,156.5c0,3.273-2.8,5.608-7.472,5.608h-8.873V150.421h8.873C382.6,150.421,385.4,152.29,385.4,156.5Z" transform="translate(-298.609 -133.124)" fill="#fff"/>
          <path id="Path_17" data-name="Path 17" d="M362.99,273.665v7.48h6.071v-7.012a5.3,5.3,0,0,0-3.735-1.4A3.559,3.559,0,0,0,362.99,273.665Z" transform="translate(-298.617 -233.93)" fill="#fff"/>
          <path id="Path_18" data-name="Path 18" d="M474.468,291.569l-3.735-5.608a6.737,6.737,0,0,0-4.2,5.142l.466.468h7.472Z" transform="translate(-380.21 -244.356)" fill="#fff"/>
          <path id="Path_19" data-name="Path 19" d="M448.164,263.367l-4.67-6.077h-1.4a5.073,5.073,0,0,0-4.2,1.87l6.537,9.35A7.231,7.231,0,0,0,448.164,263.367Z" transform="translate(-357.641 -221.763)" fill="#fff"/>
          <path id="Path_20" data-name="Path 20" d="M448.363,213.507l-2.336-3.273c4.2-.935,7.005-3.739,7.938-8.415a7.133,7.133,0,0,0-4.67-1.87h-1.4c0,3.273-2.336,5.142-5.6,5.609v1.4A6.983,6.983,0,0,0,448.363,213.507Z" transform="translate(-361.108 -176.577)" fill="#fff"/>
          <path id="Path_21" data-name="Path 21" d="M417.916,208.77c.466.468.466.935.466,1.87a7.186,7.186,0,0,1-7.005,7.012c-2.8,0-5.6-2.338-6.537-5.142h6.071C414.648,212.511,417.45,211.108,417.916,208.77Z" transform="translate(-331.596 -183.527)" fill="#fff"/>
          <path id="Path_22" data-name="Path 22" d="M400.44,242.454h6.071l5.136,7.946a5.623,5.623,0,0,0,.935-3.739c0-4.207-2.8-7.012-6.537-7.012C403.709,239.65,401.375,240.585,400.44,242.454Z" transform="translate(-328.129 -207.862)" fill="#fff"/>
          <path id="Path_23" data-name="Path 23" d="M376.056,144.82H362.98v7.949a6.255,6.255,0,0,0,6.071,3.739v-6.077h7.938v-1.4A11.1,11.1,0,0,0,376.056,144.82Z" transform="translate(-298.609 -133.132)" fill="#fff"/>
          <path id="Path_24" data-name="Path 24" d="M362.99,144.82v15.427h.466a7.727,7.727,0,0,0,5.6-2.338v-7.48h1.867a7.57,7.57,0,0,0-7.472-5.609Z" transform="translate(-298.617 -133.132)" fill="#fff"/>
          <path id="Path_25" data-name="Path 25" d="M370.661,173.2l1.867-1.4v-7.48H374.4a2.423,2.423,0,0,0-.935-1.87h0c-3.269,0-6.071,2.8-6.071,5.609A5.264,5.264,0,0,0,370.661,173.2Z" transform="translate(-302.084 -147.025)" fill="#fff"/>
          <path id="Path_26" data-name="Path 26" d="M362.99,197.75v18.231h1.4a13.834,13.834,0,0,0,4.67-.935v-5.609h4.2a8.666,8.666,0,0,0,0-5.608h-4.2v-5.142c-1.4-.935-2.8-.935-4.67-.935Q363.688,197.749,362.99,197.75Z" transform="translate(-298.617 -174.843)" fill="#fff"/>
          <path id="Path_27" data-name="Path 27" d="M374,266.376a8.8,8.8,0,0,0,3.735-.935V261.7C375.87,262.168,374.469,264.038,374,266.376Z" transform="translate(-307.293 -225.238)" fill="#fff"/>
          <path id="Path_28" data-name="Path 28" d="M377.737,281.135v-7.012l-2.8-1.4a6.659,6.659,0,0,0-.935,2.8A6.072,6.072,0,0,0,377.737,281.135Z" transform="translate(-307.293 -233.922)" fill="#fff"/>
          <path id="Path_29" data-name="Path 29" d="M451.972,233.688l-4.2-6.077a15.823,15.823,0,0,0,6.537-4.207,5.3,5.3,0,0,0-3.735-1.4,6.185,6.185,0,0,0-6.071,6.077c0,2.8,2.8,5.609,6.071,5.609C451.037,233.688,451.505,233.688,451.972,233.688Z" transform="translate(-362.85 -193.953)" fill="#fff"/>
          <path id="Path_31" data-name="Path 31" d="M468.74,92.018l2.334-2.338,1.867,2.338-1.867,1.87Z" transform="translate(-381.952 -89.68)" fill="#fff"/>
          <path id="Path_32" data-name="Path 32" d="M435.69,92.018l2.334-2.338,2.336,2.338-2.336,2.338Z" transform="translate(-355.907 -89.68)" fill="#fff"/>
          <path id="Path_33" data-name="Path 33" d="M413.66,122.43l1.867-1.87,2.336,1.87-2.336,1.87Z" transform="translate(-338.547 -114.015)" fill="#fff"/>
          <path id="Path_34" data-name="Path 34" d="M479.75,147.624l2.336-2.8,2.8,2.8-2.334,2.8Z" transform="translate(-390.628 -133.132)" fill="#fff"/>
          <path id="Path_35" data-name="Path 35" d="M422.47,147.156l2.8-2.336,2.8,2.8-2.8,2.338Z" transform="translate(-345.49 -133.132)" fill="#fff"/>
          <path id="Path_36" data-name="Path 36" d="M440.1,120.357l4.2-4.207,4.2,4.207-4.2,4.205Z" transform="translate(-359.383 -110.539)" fill="#fff"/>
          <path id="Path_37" data-name="Path 37" d="M446.7,160.047l4.2-4.207,4.2,4.676-4.2,4.208Z" transform="translate(-364.584 -141.817)" fill="#fff"/>
          <path id="Path_38" data-name="Path 38" d="M424.67,183.373l3.271-3.273,3.735,3.741-3.735,3.271Z" transform="translate(-347.223 -160.934)" fill="#fff"/>
          <path id="Path_39" data-name="Path 39" d="M468.74,200.086l2.334-2.336,1.867,2.336-1.867,1.869Z" transform="translate(-381.952 -174.843)" fill="#fff"/>
          <path id="Path_40" data-name="Path 40" d="M479.75,96.225l6.071-6.545,6.071,6.545-6.071,6.077Z" transform="translate(-390.628 -89.68)" fill="#fff"/>
          <path id="Path_41" data-name="Path 41" d="M512.8,148.559l3.735-3.739,3.737,3.739-3.737,3.739Z" transform="translate(-416.673 -133.132)" fill="#fff"/>
          <path id="Path_42" data-name="Path 42" d="M488.56,175.019l3.737-3.739,3.735,3.739L492.3,178.76Z" transform="translate(-397.571 -153.984)" fill="#fff"/>
          <path id="Path_43" data-name="Path 43" d="M526.01,191.726l3.27-2.806,3.269,3.273L529.28,195Z" transform="translate(-427.083 -167.885)" fill="#fff"/>
          <path id="Path_44" data-name="Path 44" d="M530.42,129.042l2.336-1.872,1.867,1.872-1.867,1.87Z" transform="translate(-430.558 -119.224)" fill="#fff"/>
          <g id="Group_2" data-name="Group 2" transform="translate(0 11.387)">
            <path id="Path_45" data-name="Path 45" d="M87.774,143.4H59.29v38.253H88.242v-6.064H66.293V165.325H85.44v-6.064H66.293v-9.8h21.48Z" transform="translate(-59.29 -143.4)" fill="#fff"/>
            <path id="Path_46" data-name="Path 46" d="M124.228,143.4H106.016a6.919,6.919,0,0,0-.466,3.266,5.914,5.914,0,0,0,.466,2.8h18.212Z" transform="translate(-95.745 -143.4)" fill="#fff"/>
            <path id="Path_47" data-name="Path 47" d="M72.364,143.4H59.29v17.26c1.4,0,2.336.466,3.735.466,1.867,0,3.735-.933,5.6-1.865H66.293v-9.8h7.938A9.371,9.371,0,0,0,72.364,143.4Z" transform="translate(-59.29 -143.4)" fill="#fff"/>
            <path id="Path_48" data-name="Path 48" d="M68.027,205.744v-7.463H87.174c.466-.933,0-1.865,0-2.8s.466-2.332,0-3.266H68.027v-7a11.324,11.324,0,0,0,0,20.524Z" transform="translate(-61.024 -176.356)" fill="#fff"/>
            <path id="Path_49" data-name="Path 49" d="M59.29,187.42v22.392a12.85,12.85,0,0,0,7.005-3.733v-6.064h2.8v-1.4a16.513,16.513,0,0,0-.935-4.665H66.3v-2.8A12.857,12.857,0,0,0,59.29,187.42Z" transform="translate(-59.29 -178.089)" fill="#fff"/>
            <path id="Path_50" data-name="Path 50" d="M59.29,269.783v10.73H75.634a9.368,9.368,0,0,0-1.867-6.064H66.293v-5.132c-.935,0-1.4-.466-2.336-.466A16.615,16.615,0,0,0,59.29,269.783Z" transform="translate(-59.29 -242.259)" fill="#fff"/>
            <path id="Path_52" data-name="Path 52" d="M184.86,231.1l2.336-1.867,2.334,2.334-2.334,1.865Z" transform="translate(-158.244 -211.037)" fill="#fff"/>
            <path id="Path_53" data-name="Path 53" d="M145.21,229.364l2.8-2.334,2.8,2.8-2.8,2.332Z" transform="translate(-126.998 -209.304)" fill="#fff"/>
            <path id="Path_54" data-name="Path 54" d="M120.97,264.574l1.867-2.334,2.336,2.334-1.867,2.332Z" transform="translate(-107.896 -237.05)" fill="#fff"/>
            <path id="Path_55" data-name="Path 55" d="M195.88,294.116l3.268-3.266,3.268,3.266-3.268,3.264Z" transform="translate(-166.928 -259.596)" fill="#fff"/>
            <path id="Path_56" data-name="Path 56" d="M129.78,294.116l3.271-3.266,3.268,3.266-3.268,3.264Z" transform="translate(-114.839 -259.596)" fill="#fff"/>
            <path id="Path_57" data-name="Path 57" d="M151.81,262.505l4.672-4.665,5.136,4.665-5.136,5.132Z" transform="translate(-132.199 -233.583)" fill="#fff"/>
            <path id="Path_58" data-name="Path 58" d="M158.42,310.925l5.138-4.665,4.67,5.132-4.67,4.665Z" transform="translate(-137.408 -271.74)" fill="#fff"/>
            <path id="Path_59" data-name="Path 59" d="M131.99,338.6l4.2-3.733,3.737,3.733-3.737,3.73Z" transform="translate(-116.58 -294.285)" fill="#fff"/>
            <path id="Path_60" data-name="Path 60" d="M184.86,357.012l2.336-2.332,2.334,2.332-2.334,2.332Z" transform="translate(-158.244 -309.897)" fill="#fff"/>
            <path id="Path_61" data-name="Path 61" d="M195.88,236.227l7-7,7.472,7-7.005,7.465Z" transform="translate(-166.928 -211.037)" fill="#fff"/>
            <path id="Path_62" data-name="Path 62" d="M235.53,295.049l4.67-4.2,4.2,4.665-4.2,4.2Z" transform="translate(-198.174 -259.596)" fill="#fff"/>
            <path id="Path_63" data-name="Path 63" d="M206.89,328.067l4.2-4.2,4.2,4.2-4.2,4.2Z" transform="translate(-175.604 -285.617)" fill="#fff"/>
            <path id="Path_64" data-name="Path 64" d="M250.95,345.2l3.737-3.733,3.735,4.2-3.735,3.731Z" transform="translate(-210.325 -299.487)" fill="#fff"/>
            <path id="Path_65" data-name="Path 65" d="M257.56,273.382l2.336-2.332,2.334,2.332-2.334,2.332Z" transform="translate(-215.534 -243.993)" fill="#fff"/>
            <path id="Path_66" data-name="Path 66" d="M59.29,176.886v13.061c.466,0,3.735.466,6.071-.933a6.649,6.649,0,0,0,1.867-3.733h-.935v-7.463a5.716,5.716,0,0,0-4.2-1.4A5.923,5.923,0,0,0,59.29,176.886Z" transform="translate(-59.29 -169.421)" fill="#fff"/>
            <path id="Path_67" data-name="Path 67" d="M59.29,238.514v12.129a5.086,5.086,0,0,0,2.336.466,8.3,8.3,0,0,0,4.67-1.865v-9.328a9.869,9.869,0,0,0-4.67-1.865A3.5,3.5,0,0,0,59.29,238.514Z" transform="translate(-59.29 -217.988)" fill="#fff"/>
          </g>
        </g>
      </g>
    </g>
  </g>
</svg>
